<svg width="688" height="189" viewBox="0 0 688 189" fill="none" xmlns="http://www.w3.org/2000/svg">
    <path d="M0 144.978h26.194V84.522c0-13.696-2.363-33.848-3.742-47.544h.788l11.62 34.044 22.65 60.848h16.74l22.452-60.848 11.817-34.044h.985c-1.576 13.696-3.742 33.848-3.742 47.544v60.456h26.588V0h-32.3L75.826 67.891c-3.152 9-5.712 18.587-8.863 27.783h-.985c-2.954-9.196-5.711-18.783-8.863-27.783L32.3 0H0v144.978zM175.387 189c24.618 0 36.435-14.87 46.086-40.696l39.193-112.891h-27.77l-15.165 50.87c-2.561 10.174-5.318 20.739-7.878 30.913h-.985c-3.151-10.566-5.908-21.13-9.257-30.913l-17.528-50.87h-29.149l42.935 107.609-1.969 6.456c-3.151 9.587-9.454 16.631-20.68 16.631-2.56 0-5.711-.783-7.681-1.37l-5.318 22.109c4.333 1.369 8.666 2.152 15.166 2.152zM325.813 144.978h27.573V86.87c0-16.63-2.167-34.827-3.545-50.479h.985L365.597 67.5l42.147 77.478h29.542V0h-27.573v57.913c0 16.435 2.364 35.609 3.742 50.674h-.984l-14.575-31.304L355.552 0h-29.739v144.978zM473.333 144.978h29.148V86.283h51.798V62.022h-51.798V24.26h60.661V0h-89.809v144.978zM617.492 144.978h29.149V24.261H688V0H576.527v24.26h40.965v120.718z" fill="#171717"/>
</svg>
