<svg width="564" height="96" viewBox="0 0 564 96" fill="none" xmlns="http://www.w3.org/2000/svg">
    <path d="m4.146 91.721.01.01.009.01c2.568 2.503 5.687 3.758 9.33 3.758h24.988c3.517 0 6.57-1.259 9.134-3.758l.01-.01c2.565-2.64 3.85-5.846 3.85-9.59v-.5H44.23v.5c0 1.745-.599 3.15-1.792 4.254l-.01.01-.009.009c-1.076 1.107-2.378 1.656-3.936 1.656H13.494c-1.7 0-3.063-.557-4.131-1.656-1.07-1.101-1.616-2.511-1.616-4.272V17.857c0-1.616.539-2.963 1.616-4.071l.009-.01.009-.01c1.073-1.227 2.431-1.838 4.113-1.838h24.99c1.538 0 2.836.601 3.918 1.838l.017.02.02.018c1.2 1.113 1.791 2.454 1.791 4.053v.5h7.247v-.5c0-3.615-1.289-6.753-3.85-9.389C45.065 5.832 42.009 4.5 38.483 4.5H13.494c-3.65 0-6.773 1.328-9.339 3.968l-.009.01C1.718 11.116.5 14.25.5 17.857v64.285c0 3.735 1.214 6.938 3.646 9.58z" fill="#CAFF86" stroke="#CAFF86"/>
    <path d="m66.264 94.229-.371 1.01h6.31l.181-.491 11.6-31.469h31.939l11.6 31.469.18.49h6.311l-.372-1.01-32.985-89.483-.704-1.91-.703 1.91-32.986 89.484zm20.629-38.841 13.06-35.432 13.061 35.432H86.893z" fill="#CAFF86" stroke="#CAFF86" stroke-width="1.5"/>
    <path d="M151.43 94.999v.5h7.247V20.03l24.039 49.473.45.926.449-.926 24.039-49.473v75.469h7.247V4.5h-7.06l-.136.281-24.539 50.503L158.627 4.78l-.137-.281h-7.06v90.499zM281.438 47.824l-.009.01-.01.009c-1.076 1.107-2.378 1.656-3.936 1.656h-30.736V11.93h30.736c1.54 0 2.837.6 3.919 1.838l.017.02.019.017c1.202 1.113 1.792 2.454 1.792 4.053V43.57c0 1.744-.599 3.149-1.792 4.253zM239.5 95v.5h7.247V56.928h30.736c3.517 0 6.57-1.259 9.134-3.758l.01-.01c2.565-2.64 3.85-5.846 3.85-9.59V17.858c0-3.615-1.289-6.753-3.85-9.389-2.562-2.636-5.618-3.968-9.144-3.968H239.5v90.499z" fill="#CAFF86" stroke="#CAFF86"/>
    <path d="m299.296 94.225-.372 1.01h6.311l.181-.491 11.599-31.468h31.94l11.599 31.468.181.49h6.311l-.372-1.01-32.985-89.483-.704-1.91-.704 1.91-32.985 89.484zm20.628-38.841 13.061-35.432 13.061 35.432h-26.122z" fill="#CAFF86" stroke="#CAFF86" stroke-width="1.5"/>
    <path d="M389.6 94.999v.4H413.4V88.17H405.733V11.83H413.4V4.6H389.6V11.828H397.267V88.17H389.6V95z" fill="#CAFF86" stroke="#CAFF86" stroke-width=".8"/>
    <path d="m443.2 91.721.01.01.009.01c2.568 2.503 5.688 3.758 9.33 3.758h24.988c3.518 0 6.57-1.259 9.134-3.758l.01-.01c2.565-2.64 3.851-5.846 3.851-9.59V56.429c0-3.615-1.289-6.753-3.851-9.389-2.562-2.636-5.618-3.968-9.144-3.968h-6.747v7.428h6.747c1.54 0 2.837.601 3.919 1.838l.017.02.019.018c1.202 1.113 1.792 2.454 1.792 4.053v25.714c0 1.744-.599 3.148-1.792 4.253l-.009.01-.009.009c-1.077 1.107-2.379 1.656-3.937 1.656h-24.988c-1.7 0-3.063-.557-4.132-1.656-1.07-1.101-1.616-2.511-1.616-4.272V17.857c0-1.616.539-2.963 1.616-4.071l.009-.01.009-.01c1.074-1.227 2.432-1.838 4.114-1.838h24.988c1.54 0 2.837.601 3.919 1.838l.017.02.019.018c1.202 1.113 1.792 2.454 1.792 4.053v.5h7.248v-.5c0-3.615-1.289-6.753-3.851-9.389-2.562-2.636-5.618-3.968-9.144-3.968h-24.988c-3.651 0-6.773 1.328-9.339 3.968l-.01.01c-2.428 2.638-3.646 5.772-3.646 9.379v64.285c0 3.735 1.215 6.938 3.646 9.58zM512.522 94.999v.5h7.248V20.03l36.533 75.187.137.282h7.06V4.5h-7.247v75.469L519.719 4.78l-.136-.281h-7.061v90.499z" fill="#CAFF86" stroke="#CAFF86"/>
</svg>
