<svg width="775" height="120" viewBox="0 0 775 120" fill="none" xmlns="http://www.w3.org/2000/svg">
    <g filter="url(#xvxfbb87ia)" fill="#fff" fill-opacity=".05">
        <path d="M0 94.531h25.073c25.905 0 42.541-14.689 42.541-44.186 0-29.614-16.636-43.593-43.492-43.593H0v87.78zm17.587-14.097V20.85h5.466c16.399 0 26.618 8.055 26.618 29.497 0 21.322-10.22 30.088-26.618 30.088h-5.466zM112.397 96.19c8.199 0 16.636-2.843 23.172-7.345l-5.942-10.661c-4.753 2.961-9.506 4.62-14.972 4.62-9.863 0-16.993-5.686-18.419-16.585h40.997c.475-1.54.831-4.738.831-8.055 0-18.243-9.506-31.629-27.806-31.629-15.804 0-31.014 13.386-31.014 34.827 0 21.915 14.497 34.827 33.153 34.827zM95.999 54.61c1.307-9.595 7.486-14.57 14.497-14.57 8.556 0 12.596 5.686 12.596 14.57H95.999zM166.958 94.531h20.201l22.221-66.338h-16.755l-9.744 33.05c-1.783 6.516-3.565 13.387-5.348 20.139h-.594c-1.782-6.752-3.565-13.623-5.347-20.138l-9.744-33.05h-17.587l22.697 66.337zM248.517 96.19c8.2 0 16.637-2.843 23.172-7.345l-5.941-10.661c-4.753 2.961-9.507 4.62-14.973 4.62-9.863 0-16.992-5.686-18.418-16.585h40.996c.475-1.54.832-4.738.832-8.055 0-18.243-9.507-31.629-27.806-31.629-15.805 0-31.015 13.386-31.015 34.827 0 21.915 14.497 34.827 33.153 34.827zm-16.398-41.58c1.307-9.595 7.486-14.57 14.497-14.57 8.556 0 12.596 5.686 12.596 14.57h-27.093zM304.968 96.19c4.159 0 7.011-.711 9.031-1.54l-2.139-12.913c-1.188.237-1.663.237-2.376.237-1.664 0-3.446-1.303-3.446-5.33V0H288.57v75.933c0 12.32 4.277 20.256 16.398 20.256zM353.858 96.19c16.636 0 31.965-12.794 31.965-34.828 0-22.033-15.329-34.827-31.965-34.827s-31.965 12.794-31.965 34.827c0 22.034 15.329 34.827 31.965 34.827zm0-14.216c-9.031 0-14.141-8.055-14.141-20.612 0-12.438 5.11-20.612 14.141-20.612 9.031 0 14.141 8.174 14.141 20.612 0 12.557-5.11 20.612-14.141 20.612zM400.437 120h17.468V99.862l-.595-10.898c5.11 4.62 10.695 7.225 16.518 7.225 14.616 0 28.281-13.148 28.281-35.893 0-20.375-9.744-33.76-26.142-33.76-7.13 0-14.022 3.79-19.607 8.528h-.357l-1.307-6.87h-14.259V120zm29.469-38.144c-3.565 0-7.842-1.303-12.001-4.975V47.739c4.515-4.62 8.555-6.87 13.071-6.87 9.15 0 13.19 6.989 13.19 19.664 0 14.452-6.179 21.323-14.26 21.323zM476.91 94.531h17.468V48.924c4.634-4.975 8.912-7.463 12.715-7.463 6.298 0 9.387 3.554 9.387 13.86v39.21h17.35V48.924c4.753-4.975 9.031-7.463 12.833-7.463 6.298 0 9.269 3.554 9.269 13.86v39.21H573.4V53.188c0-16.702-6.536-26.653-20.677-26.653-8.674 0-15.091 5.212-21.151 11.61-3.209-7.345-8.794-11.61-18.3-11.61-8.675 0-14.854 4.738-20.439 10.543h-.356l-1.307-8.885h-14.26v66.338zM620.441 96.19c8.199 0 16.636-2.843 23.171-7.345l-5.941-10.661c-4.753 2.961-9.506 4.62-14.973 4.62-9.863 0-16.992-5.686-18.418-16.585h40.996c.475-1.54.832-4.738.832-8.055 0-18.243-9.507-31.629-27.806-31.629-15.805 0-31.015 13.386-31.015 34.827 0 21.915 14.497 34.827 33.154 34.827zm-16.399-41.58c1.307-9.595 7.486-14.57 14.497-14.57 8.556 0 12.596 5.686 12.596 14.57h-27.093zM660.493 94.531h17.468V48.924c4.872-4.857 8.318-7.463 13.784-7.463 6.536 0 9.387 3.554 9.387 13.86v39.21H718.6V53.188c0-16.702-6.179-26.653-20.557-26.653-9.031 0-15.804 4.738-21.627 10.424h-.357l-1.307-8.766h-14.259v66.338zM760.978 96.19c5.823 0 10.457-1.303 14.022-2.488l-2.852-12.675c-1.782.71-4.397 1.421-6.535 1.421-5.942 0-9.032-3.554-9.032-11.135V41.935h16.399V28.193h-16.399V10.306h-14.497l-2.02 17.888-10.338.829v12.912h9.387v29.378c0 14.807 6.061 24.876 21.865 24.876z"/>
    </g>
    <defs>
        <filter id="xvxfbb87ia" x="-8" y="-8" width="791" height="136" filterUnits="userSpaceOnUse" color-interpolation-filters="sRGB">
            <feFlood flood-opacity="0" result="BackgroundImageFix"/>
            <feGaussianBlur in="BackgroundImage" stdDeviation="4"/>
            <feComposite in2="SourceAlpha" operator="in" result="effect1_backgroundBlur_1568_22813"/>
            <feBlend in="SourceGraphic" in2="effect1_backgroundBlur_1568_22813" result="shape"/>
        </filter>
    </defs>
</svg>
