<svg width="24" height="24" viewBox="0 0 24 24" fill="none" xmlns="http://www.w3.org/2000/svg">
    <g clip-path="url(#0teglplvga)" fill="#A2A2A2">
        <path d="M5.937 24c-.195-.07-.4-.121-.584-.215-.755-.383-1.118-1.023-1.185-1.855-.102-1.283-.212-2.566-.317-3.848-.1-1.229-.194-2.458-.295-3.686-.1-1.22-.208-2.44-.309-3.661-.06-.723-.114-1.446-.172-2.186h17.849c-.021.31-.039.619-.064.925-.118 1.415-.24 2.83-.357 4.245-.101 1.22-.195 2.442-.295 3.663-.101 1.228-.207 2.456-.31 3.684-.031.366-.045.733-.1 1.095-.142.957-.718 1.572-1.65 1.799-.029.006-.054.027-.08.04H5.937zm1.166-8.438v4.852c.001.395.174.645.493.73.517.136.907-.185.907-.754.002-2.898 0-5.797 0-8.695 0-.344.005-.688-.001-1.031-.004-.276-.103-.503-.362-.634-.51-.259-1.035.083-1.036.681-.003 1.618-.001 3.235-.001 4.851zm4.199-.023v1.805c0 1.023-.002 2.047 0 3.07.001.396.174.645.493.73.517.137.907-.184.907-.753.002-2.898 0-5.797 0-8.695 0-.344.005-.688-.001-1.032-.004-.275-.103-.502-.362-.633-.51-.26-1.035.082-1.036.68-.003 1.61-.001 3.219-.001 4.828zm5.6.048V11.44c0-.265.007-.532-.003-.796-.016-.397-.33-.707-.7-.706-.37.002-.676.313-.697.709-.004.07-.001.14-.001.21v9.184c0 .156-.006.313.003.469.019.328.201.558.492.634.51.134.903-.179.905-.73.002-1.61 0-3.218 0-4.827zM12.019 7.03H2.527c-.07 0-.14.002-.21 0-.614-.02-.844-.276-.815-.825.032-.576-.024-1.162.063-1.728.147-.957 1.038-1.66 2.004-1.662 1.313-.004 2.627-.007 3.941.004.2.002.284-.064.338-.25a19.9 19.9 0 0 1 .385-1.175A2.08 2.08 0 0 1 10.218 0h3.546c.949 0 1.701.533 2.021 1.438.138.39.275.779.39 1.175.05.173.139.203.298.202 1.29-.005 2.58-.003 3.872-.002 1.252 0 2.152.91 2.154 2.173 0 .43.002.86 0 1.289-.002.472-.283.754-.755.755H12.02zm2.738-4.222c-.11-.33-.208-.632-.314-.93a.66.66 0 0 0-.658-.468 281.412 281.412 0 0 0-3.564 0c-.274 0-.51.123-.62.382-.137.325-.234.667-.354 1.016h5.51z"/>
    </g>
    <defs>
        <clipPath id="0teglplvga">
            <path fill="#fff" d="M0 0h24v24H0z"/>
        </clipPath>
    </defs>
</svg>
