<svg width="296" height="639" viewBox="0 0 296 639" fill="none" xmlns="http://www.w3.org/2000/svg">
    <g clip-path="url(#0iroxyqiwa)" fill="#E6E6E6" fill-opacity=".2">
        <path d="M256.372 225.822c-1.485-1.077-3.756-3.057-6.639-5.59-11.064-9.667-29.611-25.826-42.685-25.826-5.124 0-8.939 2.475-11.355 7.367-3.029 6.114 3.639 20.322 8.065 29.727 1.077 2.3 2.009 4.28 2.591 5.706 1.194 2.941 2.301 5.62 3.203 8.036 6.173 16.188 12.579 32.901 17.325 51.069.495 1.892.96 4.047 1.485 6.318 2.183 9.695 4.862 21.72 11.559 27.631 2.591 2.3 5.124 3.814 7.512 4.542 1.106.32 2.184.495 3.261.495 7.92 0 13.365-8.997 18.635-17.703 1.193-1.979 2.445-4.047 3.668-5.91l1.165-1.776c20.061-30.542 32.174-49.002-4.717-74.594-3.581-2.533-8.211-5.94-13.073-9.492zm16.596 83.241-1.164 1.777a171.788 171.788 0 0 0-3.698 5.968c-5.067 8.356-10.278 17.004-17.383 17.004a9.663 9.663 0 0 1-2.824-.437c-2.184-.641-4.542-2.067-6.988-4.222-6.348-5.59-8.997-17.382-11.123-26.873-.524-2.301-.99-4.455-1.485-6.348-4.775-18.226-11.18-34.997-17.382-51.214a333.766 333.766 0 0 0-3.232-8.065c-.612-1.456-1.543-3.465-2.621-5.794-4.047-8.589-10.802-22.972-8.065-28.446 2.184-4.396 5.474-6.551 10.045-6.551 12.52 0 30.806 15.955 41.724 25.476 2.912 2.533 5.212 4.542 6.755 5.678 4.863 3.552 9.522 6.958 13.132 9.462 35.697 24.778 23.876 42.771 4.309 72.585z"/>
        <path d="M280.219 193.153c-6.435-4.687-12.84-9.928-19.624-15.46-20.761-16.945-44.258-36.162-65.396-36.162-4.164 0-8.124.728-12.113 2.242-37.327 14.121-31.97 53.573-25.477 75.846 3.989 13.597 9.114 27.078 14.092 40.092 5.795 15.17 11.793 30.863 15.956 46.847 2.534 9.638 3.786 19.799 5.008 29.611 3.756 30.135 7.309 58.581 47.49 58.581 3.173 0 6.609-.175 10.191-.524 4.571-.466 8.327-1.165 11.53-2.184 10.686-3.436 13.888-9.929 18.722-19.741 1.456-2.969 3.115-6.318 5.183-9.957 3.144-5.561 6.58-10.831 10.161-15.897v-1.514c-3.843 5.415-7.541 11.035-10.919 16.974-2.067 3.64-3.726 7.017-5.211 9.987-4.746 9.608-7.862 15.955-18.198 19.274-3.145 1.019-6.843 1.718-11.356 2.155-3.552.349-6.959.524-10.103.524-39.424 0-42.744-26.786-46.616-57.824-1.223-9.841-2.504-20.031-5.037-29.727-4.193-16.042-10.191-31.736-16.014-46.934-4.979-13.015-10.104-26.437-14.064-40.005-6.435-21.982-11.734-60.939 24.924-74.798 3.873-1.456 7.745-2.183 11.792-2.183 20.819 0 44.199 19.099 64.843 35.957 6.784 5.561 13.219 10.802 19.654 15.49 4.862 3.552 9.143 6.667 12.345 8.88l3.931 2.708v-1.019c-1.135-.786-2.3-1.572-3.436-2.359-3.115-2.241-7.395-5.357-12.258-8.88z"/>
        <path d="M280.917 218.774c-3.377-2.358-7.949-5.677-12.724-9.142-6.842-5.008-13.452-10.394-20.498-16.13-1.572-1.281-3.319-2.766-5.154-4.309-11.734-9.958-27.806-23.584-42.597-23.584-4.077 0-7.862 1.049-11.239 3.145-25.565 15.81-10.191 53.543-1.019 76.079 1.106 2.737 2.183 5.328 3.057 7.628 5.998 15.664 12.2 31.882 16.655 48.973.844 3.202 1.688 6.987 2.562 10.976 4.076 18.285 9.637 43.353 23.643 52.379 2.3 1.485 4.746 2.417 7.22 2.766.728.117 1.514.146 2.272.146 17.12 0 34.182-26 46.674-45.013 2.271-3.436 4.309-6.551 6.201-9.259v-1.514c-2.067 2.941-4.367 6.406-6.929 10.307-12.346 18.838-29.292 44.605-45.946 44.605a17.93 17.93 0 0 1-2.155-.145c-2.359-.321-4.659-1.223-6.872-2.621-13.714-8.822-19.246-33.686-23.264-51.825-.902-3.989-1.718-7.774-2.562-11.006-4.484-17.12-10.686-33.367-16.684-49.06-.873-2.3-1.922-4.891-3.057-7.628-9.085-22.303-24.254-59.6.669-75.002 3.262-2.009 6.872-3.028 10.774-3.028 14.471 0 30.397 13.51 42.015 23.38a319.249 319.249 0 0 0 5.212 4.367c7.017 5.707 13.626 11.122 20.498 16.13 4.775 3.494 9.346 6.813 12.724 9.172 4.542 3.144 9.143 6.259 14.034 9.579.524.349 1.019.669 1.514 1.019v-1.049a65.106 65.106 0 0 1-1.077-.727c-4.804-3.378-9.405-6.464-13.947-9.609z"/>
        <path d="M129.569 425.377c1.659 2.155 4.746 5.095 12.52 5.736 29.087 2.387 73.083 5.969 110.206 39.801l.437.378c12.695 11.588 23.002 26.263 30.631 43.616 2.125 4.775 5.532 7.541 9.404 7.541a8.482 8.482 0 0 0 3.203-.641v-1.048c-1.048.495-2.125.815-3.203.815-3.494 0-6.638-2.562-8.618-7.017-7.687-17.469-18.082-32.231-30.864-43.906l-.437-.379c-37.356-34.036-81.526-37.646-110.73-40.034-7.425-.611-10.366-3.377-11.909-5.386-3.698-4.833-4.164-12.316-3.756-14.616 4.047-17.819 9.084-40.005 7.192-64.258-3.174-41.082-19.625-76.399-35.493-110.552-12.753-27.398-27.195-58.464-22.187-72.614 8.939-25.185 45.451-61.318 60.708-75.672 9.696-9.113 21.255-13.742 34.299-13.742 7.454 0 13.889 1.572 17.995 2.882 26.787 8.647 64.697 28.417 106.974 55.582v-1.048c-42.103-27.049-79.896-46.76-106.654-55.378-4.135-1.34-10.686-2.94-18.256-2.94-13.278 0-25.012 4.716-34.882 14.004-15.315 14.412-51.944 50.661-60.941 76.021-5.125 14.499 9.404 45.711 22.216 73.283 15.839 34.066 32.232 69.296 35.435 110.232 1.892 24.137-3.145 46.236-7.163 64.054-.495 2.417 0 10.249 3.873 15.286z"/>
        <path d="M184.395 398.999c6.639 3.639 15.723 5.182 24.517 6.667 6.522 1.106 13.248 2.242 18.722 4.222 3.465 1.252 7.279 3.144 11.326 5.124 8.357 4.105 17.819 8.793 26.438 8.793 1.66 0 3.261-.175 4.775-.524.408-.087.786-.204 1.194-.32 12.345-3.669 18.926-19.158 24.603-33.367v-2.358c-.029.087-.058.175-.116.262-5.765 14.499-12.287 30.921-24.749 34.647-.379.117-.757.204-1.136.292-1.426.32-2.97.495-4.571.495-8.415 0-17.79-4.63-26.059-8.706-4.077-2.009-7.92-3.901-11.414-5.153-5.561-2.009-12.346-3.145-18.897-4.28-8.735-1.485-17.761-3.028-24.254-6.581-14.384-7.89-12.87-22.331-11.297-37.617.611-5.969 1.252-12.17.815-17.819-3.756-48.448-21.75-87.143-39.162-124.527-7.891-16.974-8.473-35.608-1.631-52.408 7.425-18.197 22.974-32.901 42.656-40.325a53.37 53.37 0 0 1 19.014-3.494c28.097 0 54.477 21.545 77.741 40.558 6.58 5.386 12.811 10.452 18.78 14.82 1.543 1.135 2.941 2.154 4.251 3.115v-1.077c-1.164-.844-2.416-1.747-3.756-2.737-5.94-4.338-12.17-9.404-18.751-14.791-23.322-19.129-49.818-40.762-78.236-40.762-6.581 0-13.074 1.194-19.305 3.553-19.915 7.511-35.638 22.389-43.151 40.82-6.958 17.032-6.347 35.899 1.66 53.106 17.383 37.356 35.348 75.963 39.075 124.237.436 5.561-.204 11.733-.816 17.673-1.572 14.907-3.144 30.309 11.734 38.462z"/>
        <path d="M165.527 414.692a858.47 858.47 0 0 0 17.412 4.134c30.456 7.046 56.719 13.16 83.012 36.948l.524.466c6.056 5.474 10.802 8.123 14.587 8.123.583 0 1.165-.058 1.718-.204 5.707-1.31 8.56-9.288 11.676-19.565.495-1.602 1.019-3.174 1.514-4.746v-2.854a361.061 361.061 0 0 0-2.358 7.367c-3.058 10.015-5.795 17.76-11.036 18.983-3.785.873-8.764-1.63-15.519-7.745l-.524-.466c-26.467-23.962-52.847-30.076-83.419-37.151-5.62-1.31-11.443-2.65-17.383-4.135-21.342-5.357-17.732-25.447-14.238-44.838 1.514-8.472 3.116-17.265 2.533-24.602-3.465-44.751-20.673-81.757-37.327-117.569-1.98-4.28-4.135-8.443-6.173-12.491-10.686-20.992-19.945-39.102-6.726-61.404 9.929-16.771 24.837-30.513 39.22-43.79 2.592-2.388 5.183-4.775 7.716-7.163 5.561-5.211 13.132-7.86 22.478-7.86 35.872 0 91.048 38.17 122.785 61.171v-1.077c-31.912-23.118-86.855-60.997-122.785-60.997-9.579 0-17.353 2.736-23.089 8.094a936.283 936.283 0 0 1-7.716 7.162c-14.442 13.335-29.379 27.107-39.395 43.994-13.452 22.71-3.669 41.926 6.697 62.249 2.067 4.047 4.193 8.211 6.172 12.491 16.597 35.724 33.805 72.643 37.241 117.248.553 7.221-1.019 15.955-2.533 24.37-3.524 19.798-7.192 40.296 14.936 45.857z"/>
        <path d="M256.517 635.273c3.756 2.388 9.812 3.698 17.121 3.698 6.493 0 14.179-1.077 22.361-3.581v-2.126c-8.182 2.562-15.868 3.669-22.361 3.669-6.814 0-12.637-1.223-16.015-3.378-17.12-10.918-24.661-30.222-32.669-50.632-6.9-17.615-14.063-35.841-27.922-48.681l-.03-.611-.611.029c-15.956-14.063-37.415-20.905-65.658-20.905-27.544 0-56.516 6.609-79.78 11.908-15.897 3.639-29.64 6.755-38.492 6.755-5.183 0-8.356-1.077-9.667-3.261-1.747-2.912-.436-8.415 3.873-16.276 20.12-36.744 60.766-124.323 57.942-160.572-2.213-28.592-15.956-58.144-29.262-86.706-19.217-41.315-39.133-84.086-24.633-124.935C27.252 93.053 100.073 9.725 151.872 2.65c3.028-.408 6.289-.612 9.696-.612 33.717 0 83.011 20.09 134.402 49.176v-2.183C244.579 20.002 195.314 0 161.568 0c-3.494 0-6.843.204-9.958.64C99.141 7.804 25.476 91.919 8.792 138.97c-14.762 41.635 5.329 84.784 24.72 126.536 13.22 28.388 26.875 57.765 29.059 86.008 2.504 32.318-32.931 114.22-57.68 159.437-4.804 8.793-6.057 14.616-3.844 18.313 1.69 2.883 5.445 4.251 11.414 4.251 9.085 0 22.915-3.144 38.93-6.813 23.176-5.299 52.031-11.879 79.342-11.879 27.894 0 49.032 6.755 64.61 20.643 13.714 12.549 20.818 30.688 27.719 48.215 8.123 20.731 15.781 40.325 33.455 51.593z"/>
        <path d="M59.69 487.074c2.067 2.999 7.163 4.28 16.975 4.28 6.143 0 13.452-.495 21.925-1.048 10.482-.699 22.39-1.485 34.678-1.485 38.929 0 65.192 8.269 82.691 26.088 16.276 12.52 25.244 32.93 33.164 50.952 9.638 21.895 17.936 40.791 36.308 40.791 1.951 0 4.018-.233 6.115-.67a52.301 52.301 0 0 0 4.426-1.135v-1.514a49.694 49.694 0 0 1-4.717 1.252c-2.009.407-3.989.64-5.824.64-17.411 0-25.535-18.488-34.969-39.917-8.007-18.168-17.062-38.753-33.542-51.447-17.732-18.052-44.316-26.466-83.652-26.466-12.346 0-24.254.786-34.795 1.484-8.444.554-15.752 1.049-21.837 1.049-9.026 0-14.034-1.165-15.752-3.64-.932-1.368-.961-3.203-.059-5.648 18.519-49.526 34.038-112.212 32.524-131.515-2.62-33.804-17.47-65.743-31.854-96.635-17.586-37.763-34.183-73.43-23.643-103.186C52.527 107.96 119.496 36.19 155.746 31.24c1.747-.232 3.698-.349 5.794-.349 28.243 0 78.004 20.236 134.403 53.66v-1.689C239.66 49.525 189.929 29.406 161.569 29.406c-2.184 0-4.193.117-5.998.379-36.658 5.008-104.296 77.36-119.087 119.024-10.744 30.31 5.969 66.238 23.672 104.292 14.325 30.776 29.116 62.57 31.737 96.111 1.31 16.916-12.579 77.768-32.436 130.875-1.077 2.94-1.02 5.211.233 6.987z"/>
        <path d="M103.654 449.166c5.416 7.774 16.859 8.647 32.669 9.87 1.718.116 3.494.262 5.299.407 5.009.408 10.25.583 15.782.787 25.739.873 54.914 1.892 81.264 25.883l.321.291c14.616 12.782 23.293 35.318 30.98 55.204 7.716 20.031 14.412 37.326 25.011 37.326.32 0 .67-.058.99-.117v-.873c-.32.029-.67.116-.99.116-10.016 0-16.567-17.032-24.196-36.773-7.716-19.973-16.451-42.625-31.213-55.552l-.32-.291c-26.584-24.195-55.933-25.214-81.818-26.088-5.532-.204-10.773-.378-15.752-.786-1.806-.146-3.582-.291-5.299-.408-15.578-1.193-26.846-2.067-32.029-9.491-4.891-7.046-4.222-20.265 2.242-42.8 5.969-20.876 8.211-39.947 6.784-58.29-2.911-37.413-18.547-71.013-33.659-103.535-15.78-33.949-30.718-66.005-22.914-88.016C69.792 119.373 132.509 54.678 158.48 51.155c.582-.087 1.572-.174 3.086-.174 21.692 0 70.783 18.051 134.403 57.037v-1.019c-63.562-38.927-112.652-56.92-134.403-56.92-1.543 0-2.591.087-3.202.174-26.176 3.581-89.33 68.625-102.375 105.457-7.92 22.36 7.076 54.562 22.944 88.686 15.083 32.434 30.689 65.946 33.572 103.214 1.427 18.256-.786 37.239-6.755 57.999-6.61 23.117-7.25 36.161-2.097 43.557z"/>
    </g>
    <defs>
        <clipPath id="0iroxyqiwa">
            <path fill="#fff" d="M0 0h296v639H0z"/>
        </clipPath>
    </defs>
</svg>
