<svg width="312" height="245" viewBox="0 0 312 245" fill="none" xmlns="http://www.w3.org/2000/svg">
    <path d="M311.533 121.54c-4.57-18.405-41.512-23.348-84.297-29.035-10.579-1.416-21.51-2.856-32.112-4.583-46.908-7.535-89.834-31.507-131.347-54.711C42.973 21.62 21.746 9.742 0 0v1.824c21.44 9.67 42.431 21.38 62.976 32.874 41.63 23.252 84.698 47.32 131.888 54.903 10.65 1.704 21.581 3.168 32.16 4.584 40.429 5.399 78.596 10.486 82.907 27.787 3.346 13.486-13.9 33.955-52.727 62.558-54.494 40.145-100.2 58.838-143.881 58.838-24.832 0-49.428-6.287-73.153-18.645-14.772-7.75-27.778-17.109-40.17-26.563v2.087c12.157 9.239 24.926 18.357 39.416 25.916C63.376 238.665 88.232 245 113.323 245c44.034 0 90.07-18.789 144.847-59.15 39.981-29.444 56.945-49.864 53.363-64.31z" fill="#E6E6E6" fill-opacity=".2"/>
    <path d="M50.253 204.616c17.906 9.335 33.126 13.702 47.874 13.702 15.456 0 29.191-4.727 45.094-10.198 9.024-3.096 19.249-6.623 30.84-9.599 5.89-1.512 11.003-1.679 14.348-1.679 2.238 0 4.406.095 6.479.167 1.979.072 3.84.168 5.678.168 9.542 0 17.152-2.303 25.468-13.749 5.608-7.727 7.728-13.702 9.566-18.957 2.78-7.871 4.971-14.086 17.175-22.988 3.133-2.28 7.61-4.08 11.968-5.808 6.974-2.807 13.005-5.207 13.265-9.31.212-3.311-3.581-7.007-11.945-11.638-9.99-5.519-24.267-6.263-36.919-6.263-5.631 0-11.568.168-17.293.36-5.748.168-11.709.36-17.387.36-12.699 0-21.581-.888-28.837-2.904-40.948-11.398-79.398-32.874-113.3-51.807C34.515 44.538 17.246 34.892 0 26.613v1.32C17.057 36.14 34.138 45.69 51.761 55.53c33.974 18.98 72.471 40.481 113.63 51.855 7.351 2.04 16.351 2.952 29.144 2.952 5.701 0 11.662-.168 17.434-.36 5.725-.168 11.639-.36 17.246-.36 12.487 0 26.576.72 36.353 6.119 7.681 4.247 11.497 7.798 11.332 10.51-.212 3.335-6.196 5.735-12.51 8.255-4.406 1.775-8.953 3.599-12.204 5.951-12.51 9.118-14.866 15.813-17.599 23.564-1.838 5.183-3.911 11.062-9.424 18.645-8.034 11.038-15.338 13.27-24.526 13.27-1.814 0-3.676-.072-5.631-.168a141.722 141.722 0 0 0-6.526-.168c-3.416 0-8.623.168-14.631 1.703-11.639 2.976-21.887 6.503-30.934 9.623-15.809 5.447-29.45 10.15-44.717 10.15-14.56 0-29.615-4.319-47.356-13.558-16.256-8.422-30.84-19.676-44.952-30.571-1.955-1.511-3.911-3.023-5.89-4.535v1.512c1.743 1.32 3.463 2.663 5.183 3.983 14.136 10.918 28.767 22.197 45.07 30.715z" fill="#E6E6E6" fill-opacity=".2"/>
    <path d="M61.115 183.041c17.41 9.095 34.468 13.51 52.185 13.51 9.919 0 31.335-4.127 49.994-11.014 16.351-6.047 35.858-16.077 35.906-29.563.047-15.886-30.063-24.716-48.063-29.995-3.911-1.152-7.303-2.136-9.542-2.976-32.23-11.902-64.224-26.923-100.671-47.272C26.976 67.956 13.382 60.374 0 53.559v.816c13.264 6.766 26.74 14.277 40.547 22.004 36.494 20.372 68.512 35.418 100.766 47.32 2.285.84 5.678 1.824 9.589 2.976 17.811 5.207 47.614 13.941 47.567 29.299-.071 23.324-64.625 39.857-85.193 39.857-17.599 0-34.562-4.391-51.855-13.437-14.395-7.511-28.154-18.141-41.442-28.388C13.547 149.039 6.927 143.928 0 138.961v.888c6.762 4.871 13.24 9.862 19.555 14.733 13.335 10.27 27.094 20.925 41.56 28.459z" fill="#E6E6E6" fill-opacity=".2"/>
    <path d="M68.63 168.094c15.008 7.847 29.615 11.638 44.67 11.662 13.076 0 30.133-3.959 36.706-12.622 2.851-3.767 3.676-8.182 2.403-13.125-2.992-11.639-26.905-19.869-44.387-25.868-5.654-1.944-10.53-3.624-13.523-5.039-20.19-9.551-40.17-20.709-59.489-31.483l-2.144-1.2C21.7 84.18 10.766 78.085 0 72.422v.816c10.65 5.615 21.463 11.638 32.513 17.829l2.144 1.2c19.319 10.798 39.321 21.956 59.512 31.506 3.04 1.44 7.916 3.12 13.594 5.064 16.351 5.615 41.042 14.109 43.916 25.364 1.202 4.727.448 8.926-2.262 12.501-6.432 8.471-23.23 12.334-36.188 12.334-14.89 0-29.403-3.791-44.316-11.59-13.076-6.839-26.246-16.989-38.968-26.827-9.212-7.127-19.107-14.734-29.945-21.957v.864c10.673 7.127 20.427 14.638 29.52 21.669 12.747 9.838 25.94 20.036 39.11 26.899z" fill="#E6E6E6" fill-opacity=".2"/>
    <path d="M76.028 153.36c4.688 2.447 17.906 6.839 27.471 6.839 3.416 0 6.031-.576 7.751-1.728 3.723-2.472 5.372-4.775 5.042-7.079-.754-5.063-11.568-8.111-20.238-10.558-3.581-1.008-6.644-1.896-8.41-2.712-20.687-9.766-40.901-21.068-60.456-31.987l-2.167-1.199C16.563 100.184 8.222 95.529 0 91.09v1.368c8.034 4.343 16.186 8.902 24.479 13.509l2.167 1.2c19.579 10.942 39.817 22.245 60.526 32.035 1.838.864 4.971 1.752 8.576 2.784 7.916 2.231 18.73 5.303 19.39 9.598.259 1.752-1.249 3.743-4.524 5.879-1.531 1.008-3.911 1.512-7.115 1.512-9.26 0-22.476-4.368-26.953-6.695-11.78-6.143-24.337-15.838-36.518-25.244C28.437 118.085 15.22 107.887 0 98.625v1.415c14.937 9.143 27.942 19.173 39.369 28.004 12.18 9.382 24.785 19.101 36.659 25.316z" fill="#E6E6E6" fill-opacity=".2"/>
</svg>
