<svg width="24" height="24" viewBox="0 0 24 24" fill="none" xmlns="http://www.w3.org/2000/svg">
    <path d="M16.574.998c.177.15.368.286.528.452 1.872 1.939 3.74 3.881 5.608 5.824.389.404.387.744-.004 1.15-1.918 1.995-3.837 3.987-5.753 5.983-.232.241-.49.366-.822.243-.302-.11-.45-.362-.45-.75v-2.84c-.541 0-1.068-.03-1.59.006a7.39 7.39 0 0 0-4.004 1.484 7.53 7.53 0 0 0-2.18 2.597c-.221.425-.623.57-.994.362-.205-.115-.35-.29-.345-.53.018-.876-.002-1.757.09-2.625.162-1.557.774-2.953 1.725-4.19 1.253-1.632 2.879-2.714 4.872-3.238a9.138 9.138 0 0 1 2.174-.284h.252v-.4c0-.785.013-1.57-.005-2.354-.01-.416.123-.72.513-.89h.385z" fill="#A2A2A2"/>
    <path d="M7.932 5.564H2.999a1 1 0 0 0-1 1V21a1 1 0 0 0 1 1h18.08a1 1 0 0 0 1-1v-9.044" stroke="#A2A2A2" stroke-width="1.5" stroke-linecap="round"/>
</svg>
