<svg width="24" height="24" viewBox="0 0 24 24" fill="none" xmlns="http://www.w3.org/2000/svg">
    <path d="M13.924 1c.134.043.268.084.4.128.912.307 1.517 1.105 1.523 2.01v.737h4.194c1.124.002 1.956.78 1.959 1.828.002.801 0 1.602 0 2.403-.001.523-.298.798-.861.8h-.319c-.007.094-.018.179-.021.265-.093 1.816-.187 3.632-.278 5.448-.07 1.39-.135 2.78-.207 4.17-.058 1.114-.1 2.229-.194 3.34-.086 1.024-1.093 1.866-2.195 1.867-3.95.005-7.898.005-11.848 0-1.1-.001-2.1-.843-2.196-1.867-.075-.797-.102-1.598-.145-2.398a1652.92 1652.92 0 0 1-.226-4.372c-.055-1.091-.107-2.183-.161-3.274-.05-1.017-.1-2.034-.152-3.05-.002-.036-.013-.071-.023-.131-.14 0-.275.001-.408-.001-.433-.007-.761-.307-.763-.709-.003-.866-.006-1.735.002-2.603.01-.906.867-1.707 1.836-1.713 1.33-.008 2.66-.002 3.99-.002h.325v-.58c0-1.185.635-1.952 1.867-2.258.02-.005.037-.025.055-.037L13.924 1zM4.742 8.917c0 .069-.003.127 0 .185.068 1.33.135 2.66.205 3.992l.225 4.283c.077 1.494.152 2.99.234 4.484.022.415.332.686.778.7.136.005.273.002.409.002H17.72c.554 0 .851-.251.88-.768.111-2.002.216-4.006.32-6.009.114-2.197.225-4.395.336-6.593.004-.093 0-.186 0-.276H4.742zm15.72-1.459V5.882c0-.47-.105-.57-.6-.57H4.027c-.338.001-.482.137-.485.452-.003.367 0 .734 0 1.1v.594h16.922zM14.31 3.865l-.001-.587c0-.067.003-.136-.008-.202-.061-.372-.364-.633-.775-.636a245.294 245.294 0 0 0-3.047 0c-.347 0-.664.19-.727.485-.065.306-.053.627-.076.94h4.634z" fill="#A2A2A2"/>
    <path d="M8.924 15.742c0 1.556.001 3.112-.001 4.668-.001.354-.284.66-.64.709-.384.052-.746-.152-.86-.496a.849.849 0 0 1-.035-.264c-.002-3.082-.002-6.164 0-9.247 0-.457.314-.77.77-.768.452.001.765.316.765.774.002 1.542 0 3.083 0 4.624zM12.77 15.732l-.001 4.668a.736.736 0 0 1-.652.72c-.387.045-.744-.163-.854-.508a.81.81 0 0 1-.028-.243c-.002-3.09-.002-6.18-.001-9.27 0-.441.316-.753.76-.755.454-.003.775.311.776.764v4.624zM16.616 15.745c0 1.557.001 3.113-.001 4.669-.001.352-.287.659-.643.705-.385.05-.745-.154-.859-.498a.865.865 0 0 1-.033-.265c-.002-3.082-.002-6.165-.002-9.247 0-.457.317-.768.775-.765.45.002.762.318.762.777.002 1.542 0 3.083 0 4.624z" fill="#A2A2A2"/>
</svg>
