<svg width="150" height="130" viewBox="0 0 150 130" fill="none" xmlns="http://www.w3.org/2000/svg">
    <path d="M30.58 89.086c1.91-4.758 3.796-9.46 5.682-14.164l.154-.386.408.082.088.016h.002l.106.02.402.08V114.5H112.63V74.824l.325-.121.104-.038h.002l.084-.03.458-.172.182.454 5.684 14.165 1.022-.405 3.527-1.396-.942-2.369c-.764-1.92-1.519-3.818-2.278-5.715-.647-1.617-1.297-3.234-1.946-4.85a1770.366 1770.366 0 0 1-5.775-14.5v-.001c-.209-.535-.316-1.096-.395-1.644-.031-.21-.057-.413-.083-.614-.026-.206-.052-.41-.082-.615H37.574c-.38 2.451-1.184 4.737-2.096 6.95-.376.915-.767 1.808-1.156 2.695-.617 1.41-1.227 2.803-1.763 4.244l-.468-.174c-1.39 3.742-2.892 7.44-4.394 11.14-.658 1.622-1.317 3.244-1.966 4.87l4.85 2.388zm0 0-1.864-.743-2.672-1.065 4.537 1.808z" stroke="#fff"/>
    <mask id="gzg5cyc2ra" fill="#fff">
        <path d="M25 38.436h5.846V32.63h5.833v5.785h5.852v5.829H36.75v5.85h-5.833v-5.8h-5.914C25 42.342 25 40.388 25 38.436z"/>
    </mask>
    <path d="M25 38.436v-1h-1v1h1zm5.846 0v1h1v-1h-1zm0-5.806v-1h-1v1h1zm5.833 0h1v-1h-1v1zm0 5.785h-1v1h1v-1zm5.852 0h1v-1h-1v1zm0 5.829v1h1v-1h-1zm-5.781 0v-1h-1v1h1zm0 5.85v1h1v-1h-1zm-5.833 0h-1v1h1v-1zm0-5.8h1v-1h-1v1zm-5.914 0h-1v1h1v-1zM25 39.436H30.846v-2H25v2zm6.846-1V32.63h-2V38.436h2zm-1-4.806H36.68v-2H30.846v2zm4.833-1V38.415h2V32.63h-2zm1 6.785H42.531v-2H36.679v2zm4.852-1V44.244h2V38.415h-2zm1 4.829H36.75v2H42.53v-2zm-6.781 1V50.094h2V44.244h-2zm1 4.85H30.917v2H36.75v-2zm-4.833 1V44.294h-2V50.092h2zm-1-6.8H25.003v2H30.917v-2zm-4.914.998C26 42.342 26 40.388 26 38.436h-2c0 1.951 0 3.906.003 5.859l2-.003z" fill="#fff" mask="url(#gzg5cyc2ra)"/>
    <path d="M118.466 33.078h-.547l-4.04.003c-3.146.003-6.293.007-9.439-.008l14.026.005zm0 0V37.892H111.961l.198.646c.794 2.592.604 4.928-.72 7.12a8.152 8.152 0 0 1-3.821 3.333c-2.714 1.175-6.973 1.251-10.356-3.142l-.39-.506-.398.5-2.353 2.957-.748.94-.396-.31-3.452-2.71c.54-.684 1.073-1.363 1.605-2.038 1.257-1.597 2.498-3.173 3.747-4.742.23-.29.459-.58.686-.87.9-1.141 1.788-2.268 2.753-3.33l20.15-2.662zm-20.15 2.663c1.626-1.786 3.669-2.678 6.124-2.668l-6.124 2.668z" fill="#CAFF86" fill-opacity=".3" stroke="#CAFF86"/>
    <mask id="29e20h7h3b" fill="#fff">
        <path d="M89.701 20.897V15.05h5.802v5.792h5.849v5.832h-5.797v5.847H89.72v-5.792h-5.85v-5.832h5.831z"/>
    </mask>
    <path d="M89.701 20.897v1h1v-1h-1zm0-5.847v-1h-1v1h1zm5.802 0h1v-1h-1v1zm0 5.792h-1v1h1v-1zm5.849 0h1v-1h-1v1zm0 5.832v1h1v-1h-1zm-5.797 0v-1h-1v1h1zm0 5.847v1h1v-1h-1zm-5.835 0h-1v1h1v-1zm0-5.792h1v-1h-1v1zm-5.85 0h-1v1h1v-1zm0-5.832v-1h-1v1h1zm6.831 0V15.05h-2V20.897h2zm-1-4.847H95.503v-2H89.701v2zm4.802-1V20.842h2V15.05h-2zm1 6.792H101.352v-2H95.503v2zm4.849-1V26.674h2V20.842h-2zm1 4.832H95.555v2H101.352v-2zm-6.797 1V32.52h2V26.674h-2zm1 4.847H89.72v2H95.555v-2zm-4.835 1V26.729h-2V32.52h2zm-1-6.792H83.87v2H89.72v-2zm-4.85 1V20.897h-2V26.729h2zm-1-4.832H89.702v-2H83.871v2z" fill="#fff" mask="url(#29e20h7h3b)"/>
    <path d="M77.386 43.746H72.647V27.3H77.386V43.747zM56.543 49.42l-1.637-2.834-3.74-6.48c.816-.47 1.617-.934 2.419-1.397l1.82-1.052c1.797 3.108 3.566 6.17 5.377 9.306l-4.24 2.457zM37.5 21.394H42.221V26.16H37.5V21.395z" stroke="#fff"/>
    <g filter="url(#w63w5d3npc)">
        <circle cx="60" cy="25" r="4" fill="#CAFF86"/>
    </g>
    <path d="m71.52 90.934.064.426h5.886l-.059-.553c-.26-2.443 1.098-4.088 2.706-5.91l.16-.183c1.529-1.728 3.223-3.645 3.223-6.471 0-2.564-.89-4.523-2.435-5.833-1.532-1.299-3.65-1.91-6.027-1.91-3.501 0-6.347 1.647-8.412 3.98l-.327.37.364.332 3.101 2.82.358.326.337-.346c1.184-1.216 2.402-1.984 3.89-1.984.893 0 1.573.272 2.027.709.451.434.727 1.078.727 1.917 0 .751-.337 1.48-.91 2.287-.38.534-.83 1.057-1.313 1.622-.26.301-.528.615-.802.948-1.536 1.868-3.05 4.167-2.558 7.453zm2.944 10.566c2.327 0 4.022-1.848 4.022-4.16 0-2.353-1.698-4.159-4.022-4.159-2.289 0-3.983 1.81-3.983 4.16 0 2.308 1.69 4.159 3.983 4.159z" fill="#CAFF86" fill-opacity=".5" stroke="#CAFF86"/>
    <defs>
        <filter id="w63w5d3npc" x="49" y="14" width="22" height="22" filterUnits="userSpaceOnUse" color-interpolation-filters="sRGB">
            <feFlood flood-opacity="0" result="BackgroundImageFix"/>
            <feColorMatrix in="SourceAlpha" values="0 0 0 0 0 0 0 0 0 0 0 0 0 0 0 0 0 0 127 0" result="hardAlpha"/>
            <feMorphology radius="2" operator="dilate" in="SourceAlpha" result="effect1_dropShadow_319_714"/>
            <feOffset/>
            <feGaussianBlur stdDeviation="2.5"/>
            <feComposite in2="hardAlpha" operator="out"/>
            <feColorMatrix values="0 0 0 0 0.792157 0 0 0 0 1 0 0 0 0 0.52549 0 0 0 0.4 0"/>
            <feBlend in2="BackgroundImageFix" result="effect1_dropShadow_319_714"/>
            <feBlend in="SourceGraphic" in2="effect1_dropShadow_319_714" result="shape"/>
        </filter>
    </defs>
</svg>
