<svg width="150" height="130" viewBox="0 0 150 130" fill="none" xmlns="http://www.w3.org/2000/svg">
    <rect x="59" y="71.19" width="30" height="26.667" rx="2" stroke="#fff" stroke-width="1.5"/>
    <g filter="url(#5a5r4ewyqa)">
        <circle cx="74.333" cy="84.333" r="5" fill="#CAFF86"/>
    </g>
    <path d="M65.667 71.667v-6.112a8.333 8.333 0 1 1 16.667 0v6.112" stroke="#fff" stroke-width="1.5"/>
    <path d="M22 111.222V28a2 2 0 0 1 2-2h42.939a2 2 0 0 1 1.745 1.023l6.632 11.843a2 2 0 0 0 1.745 1.023H125a2 2 0 0 1 2 2v69.333a2 2 0 0 1-2 2H24a2 2 0 0 1-2-2z" stroke="#fff"/>
    <rect x="29.722" y="33.166" width="24.556" height="4.556" rx="2.278" stroke="#fff"/>
    <circle cx="60.889" cy="35.444" r="2.278" stroke="#fff"/>
    <path d="M70.333 30.444h48.556a2 2 0 0 1 2 2v7.445" stroke="#fff"/>
    <defs>
        <filter id="5a5r4ewyqa" x="54.333" y="64.333" width="40" height="40" filterUnits="userSpaceOnUse" color-interpolation-filters="sRGB">
            <feFlood flood-opacity="0" result="BackgroundImageFix"/>
            <feColorMatrix in="SourceAlpha" values="0 0 0 0 0 0 0 0 0 0 0 0 0 0 0 0 0 0 127 0" result="hardAlpha"/>
            <feMorphology radius="4" operator="dilate" in="SourceAlpha" result="effect1_dropShadow_616_7192"/>
            <feOffset/>
            <feGaussianBlur stdDeviation="5.5"/>
            <feComposite in2="hardAlpha" operator="out"/>
            <feColorMatrix values="0 0 0 0 0.792157 0 0 0 0 1 0 0 0 0 0.52549 0 0 0 0.4 0"/>
            <feBlend in2="BackgroundImageFix" result="effect1_dropShadow_616_7192"/>
            <feBlend in="SourceGraphic" in2="effect1_dropShadow_616_7192" result="shape"/>
        </filter>
    </defs>
</svg>
