<svg width="57" height="64" viewBox="0 0 57 64" fill="none" xmlns="http://www.w3.org/2000/svg">
    <path fill-rule="evenodd" clip-rule="evenodd" d="M32.976 11.918a.492.492 0 0 0-.184-.652l-3.793-2.19a2 2 0 0 0-2 0L5.184 21.673a2 2 0 0 0-1 1.732v25.19a2 2 0 0 0 1 1.733l21.815 12.595a2 2 0 0 0 2 0l21.816-12.595a2 2 0 0 0 1-1.733v-25.19a2 2 0 0 0-1-1.732l-1.613-.932a.494.494 0 0 0-.657.167.495.495 0 0 0 .157.7l1.238.714c.541.313.875.89.875 1.516v24.18a2 2 0 0 1-1 1.732L28.999 61.767a2 2 0 0 1-2 0L6.184 49.75a2 2 0 0 1-1-1.732V23.981a2 2 0 0 1 1-1.732l20.815-12.018a2 2 0 0 1 2 0l3.292 1.901a.496.496 0 0 0 .685-.214z" fill="#fff"/>
    <g filter="url(#suzknc3q7a)">
        <circle cx="41" cy="16" r="5" fill="#CAFF86"/>
    </g>
    <path d="M23.663 42h-1.936l-5.337-9.697h-.06l.03.722c.02.258.035.532.044.824l.03.874c.01.291.015.588.015.89V42H15V30h1.922l5.322 9.647h.044c-.01-.168-.02-.375-.03-.622l-.029-.823c0-.292-.005-.589-.014-.891l-.03-.857V30h1.478v12zM28.06 42h-1.582V30h5.943v1.546H28.06v3.916h4.08v1.546h-4.08V42zM37.836 42H36.24V31.563h-3.164V30H41v1.563h-3.164V42z" fill="#fff"/>
    <defs>
        <filter id="suzknc3q7a" x="25" y="0" width="32" height="32" filterUnits="userSpaceOnUse" color-interpolation-filters="sRGB">
            <feFlood flood-opacity="0" result="BackgroundImageFix"/>
            <feColorMatrix in="SourceAlpha" values="0 0 0 0 0 0 0 0 0 0 0 0 0 0 0 0 0 0 127 0" result="hardAlpha"/>
            <feMorphology radius="3" operator="dilate" in="SourceAlpha" result="effect1_dropShadow_1590_31951"/>
            <feOffset/>
            <feGaussianBlur stdDeviation="4"/>
            <feComposite in2="hardAlpha" operator="out"/>
            <feColorMatrix values="0 0 0 0 0.792157 0 0 0 0 1 0 0 0 0 0.52549 0 0 0 0.4 0"/>
            <feBlend in2="BackgroundImageFix" result="effect1_dropShadow_1590_31951"/>
            <feBlend in="SourceGraphic" in2="effect1_dropShadow_1590_31951" result="shape"/>
        </filter>
    </defs>
</svg>
