<svg width="18" height="18" viewBox="0 0 18 18" fill="none" xmlns="http://www.w3.org/2000/svg">
    <g clip-path="url(#6ihmr81r3a)">
        <path d="M8.988 17.999c-2.17 0-4.34.002-6.511-.002a2.452 2.452 0 0 1-2.38-1.807 2.604 2.604 0 0 1-.092-.678A6334.41 6334.41 0 0 1 0 2.487 2.46 2.46 0 0 1 2.478.003c4.347-.004 8.696-.004 13.044 0a2.457 2.457 0 0 1 2.474 2.466c.005 4.354.005 8.71 0 13.063a2.459 2.459 0 0 1-2.475 2.465c-2.177.006-4.354.002-6.533.002zm2.04-13.903c-.937 0-1.874-.002-2.813.002a.815.815 0 0 0-.564 1.43c.19.168.42.2.66.2 1.818-.002 3.636-.002 5.454-.002.082 0 .165-.005.248-.013a.727.727 0 0 0 .52-.288c.205-.264.244-.557.099-.86-.153-.32-.426-.466-.773-.467-.943-.004-1.886-.002-2.83-.002zm0 8.178H8.406c-.115 0-.23.001-.344.014a.784.784 0 0 0-.68.675c-.067.538.302.94.872.94 1.651.002 3.304.002 4.956 0 .23 0 .459.008.688-.002.338-.015.6-.166.743-.483a.78.78 0 0 0-.107-.845c-.18-.23-.429-.302-.71-.3-.933.003-1.864.002-2.796 0zm.042-4.083c-.938 0-1.875 0-2.814.002-.089 0-.18 0-.265.02-.417.102-.662.473-.608.91.048.39.38.686.79.686 1.913.002 3.828 0 5.74 0a.811.811 0 0 0 .794-.92.806.806 0 0 0-.806-.696c-.944-.004-1.888-.002-2.831-.002zM4.51 12.28v-.001c-.146 0-.293-.008-.438 0-.46.029-.782.358-.784.797a.803.803 0 0 0 .779.825c.292.015.587.015.879 0a.807.807 0 0 0 .776-.81c.002-.439-.317-.778-.771-.809-.147-.011-.294-.002-.44-.002zM4.496 5.72c.153 0 .306.01.458-.001.454-.033.772-.373.77-.813a.807.807 0 0 0-.781-.807 8.778 8.778 0 0 0-.879 0 .804.804 0 0 0-.777.809c0 .444.313.778.77.81.146.011.293.002.44.002zm.007 4.086c.153 0 .306.005.459-.001a.798.798 0 0 0 .76-.8.794.794 0 0 0-.768-.813c-.3-.008-.598-.007-.898 0a.796.796 0 0 0-.769.81.798.798 0 0 0 .777.803c.147.005.293.003.439.001z" fill="#fff"/>
    </g>
    <defs>
        <clipPath id="6ihmr81r3a">
            <path fill="#fff" d="M0 0h18v18H0z"/>
        </clipPath>
    </defs>
</svg>
