<svg width="295" height="198" viewBox="0 0 295 198" fill="none" xmlns="http://www.w3.org/2000/svg">
    <g filter="url(#14p0q4qfla)">
        <mask id="b7sgdhhbob" fill="#fff">
            <path fill-rule="evenodd" clip-rule="evenodd" d="M18.703 134.327a1.997 1.997 0 0 0-.03 1.516l22.81 59.037a2 2 0 0 0 2.586 1.144l210.224-81.225c.499-.193.9-.578 1.114-1.07l20.77-47.877a1.997 1.997 0 0 0 .031-1.517l-23.364-60.47a2 2 0 0 0-2.586-1.144L41.447 83.4a2 2 0 0 0-1.114 1.07l-21.63 49.856z"/>
        </mask>
        <path d="m276.177 65.852-.917-.398.917.398zm-20.77 47.877-.918-.398.918.398zM18.703 134.327l-.917-.398.917.398zm-.963 1.877 22.81 59.036 1.865-.721-22.81-59.036-1.865.721zm26.69 60.753 210.223-81.225-.721-1.866-210.223 81.226.72 1.865zm211.894-82.83 20.771-47.877-1.835-.796-20.771 47.877 1.835.796zm20.817-50.152-23.364-60.47-1.866.721 23.364 60.47 1.866-.72zM249.897 1.788l-208.81 80.68.72 1.865 208.811-80.68-.721-1.865zM39.415 84.072l-21.63 49.857 1.836.796 21.63-49.857-1.836-.796zm1.671-1.604a3 3 0 0 0-1.67 1.604l1.834.796a1 1 0 0 1 .557-.535l-.72-1.865zM253.777 3.505a3 3 0 0 0-3.88-1.717l.721 1.866a1 1 0 0 1 1.293.572l1.866-.72zm23.318 62.745c.313-.723.33-1.54.046-2.275l-1.866.72a.996.996 0 0 1-.015.76l1.835.795zm-22.442 49.482a3.004 3.004 0 0 0 1.671-1.605l-1.835-.796a.995.995 0 0 1-.557.535l.721 1.866zM40.55 195.24a3 3 0 0 0 3.88 1.717l-.721-1.865a1 1 0 0 1-1.294-.573l-1.865.721zm-20.945-59.757a.999.999 0 0 1 .016-.758l-1.835-.796a3 3 0 0 0-.046 2.275l1.865-.721z" fill="#A2A2A2" mask="url(#b7sgdhhbob)"/>
    </g>
    <path d="M105.902 138.302c-1.476.57-2.923.564-4.341-.019-1.385-.658-2.363-1.725-2.933-3.201l-12.164-31.481 2.623-1.014 12.164 31.482c.296.765.785 1.298 1.467 1.6.682.302 1.405.305 2.17.01l10.494-4.055c.711-.275 1.217-.753 1.519-1.435.356-.703.387-1.437.091-2.202l-12.164-31.482 2.624-1.014 12.164 31.482c.57 1.476.536 2.934-.101 4.373-.658 1.385-1.698 2.352-3.119 2.901l-10.494 4.055zm28.858-11.15c-1.475.57-2.923.564-4.341-.019-1.385-.658-2.363-1.725-2.933-3.201l2.624-1.013c.295.765.784 1.298 1.466 1.6.682.302 1.405.305 2.171.009l10.494-4.054c.71-.275 1.216-.753 1.518-1.435.357-.703.387-1.437.091-2.202l-3.547-9.183-21.913-2.086-3.041-7.87c-.549-1.422-.532-2.841.051-4.26.637-1.44 1.693-2.445 3.169-3.015l10.494-4.055c1.421-.549 2.852-.504 4.291.133 1.44.637 2.434 1.666 2.983 3.087l-2.623 1.014c-.275-.71-.78-1.206-1.517-1.487-.703-.357-1.41-.398-2.12-.123l-10.494 4.055c-.765.295-1.288.811-1.569 1.548-.302.682-.316 1.378-.041 2.089l2.534 6.558 21.912 2.087 4.055 10.494c.57 1.476.537 2.933-.101 4.373-.658 1.385-1.698 2.352-3.119 2.901l-10.494 4.055zm28.859-11.15c-1.476.57-2.923.564-4.342-.019-1.385-.658-2.362-1.725-2.933-3.201l-10.136-26.235c-.549-1.42-.533-2.84.05-4.26.637-1.439 1.694-2.444 3.169-3.014l13.118-5.068 1.014 2.623-13.118 5.068c-.765.296-1.288.812-1.569 1.549-.302.682-.315 1.378-.041 2.089l3.041 7.87 13.118-5.068 1.013 2.623-13.117 5.069 6.082 15.74c.295.766.784 1.299 1.466 1.601.682.302 1.406.305 2.171.009l13.117-5.068 1.014 2.623-13.117 5.069zm38.338-17.829c.711-.274 1.217-.752 1.519-1.434.356-.703.387-1.438.091-2.203L193.43 68.301c-.274-.71-.78-1.206-1.516-1.487-.703-.356-1.41-.397-2.121-.122l-13.117 5.068 12.164 31.482 13.117-5.069zm-14.727 8.706L173.039 70.15l15.741-6.082c1.421-.549 2.851-.505 4.291.132 1.44.638 2.434 1.667 2.983 3.088l10.137 26.235c.57 1.475.536 2.933-.101 4.373-.658 1.385-1.698 2.352-3.119 2.901l-15.741 6.082z" fill="#D3D3D3"/>
    <path d="m101.561 138.283-.43.904.025.011.025.011.38-.926zm-15.097-34.682-.36-.933-.933.36.36.933.933-.36zm2.623-1.014.933-.36-.36-.933-.933.36.36.933zm27.814 27.602-.892-.452-.012.023-.011.024.915.405zm-12.073-33.684-.36-.933-.933.36.36.933.933-.36zm2.624-1.014.933-.36-.361-.933-.933.36.361.933zm12.063 35.855.903.43.006-.013.005-.012-.914-.405zm-13.973 6.023c-1.246.481-2.428.471-3.602-.011l-.759 1.851c1.663.683 3.375.685 5.081.026l-.72-1.866zm-3.552.011c-1.146-.544-1.948-1.413-2.43-2.658l-1.865.721c.66 1.706 1.812 2.972 3.436 3.744l.859-1.807zm-2.43-2.658L87.398 103.24l-1.866.721 12.164 31.482 1.866-.721zm-12.736-30.189 2.624-1.013-.721-1.866-2.624 1.014.721 1.865zm1.33-1.586 12.164 31.482 1.866-.721-12.164-31.481-1.865.72zm12.164 31.482c.381.986 1.045 1.734 1.995 2.155l.809-1.829c-.414-.183-.727-.502-.938-1.047l-1.866.721zm1.995 2.155c.95.42 1.95.408 2.936.027l-.721-1.865c-.545.21-.992.192-1.406.009l-.809 1.829zm2.936.027 10.494-4.054-.721-1.866-10.494 4.055.721 1.865zm10.494-4.054c.952-.368 1.661-1.033 2.072-1.963l-1.829-.81c-.192.434-.495.726-.964.907l.721 1.866zm2.05-1.916c.49-.967.525-1.997.132-3.015l-1.866.721c.198.513.172.951-.05 1.39l1.784.904zm.132-3.015-12.164-31.481-1.866.72 12.164 31.482 1.866-.721zm-12.736-30.188 2.623-1.014-.721-1.865-2.623 1.013.721 1.866zm1.33-1.586 12.164 31.482 1.865-.721-12.163-31.482-1.866.72zm12.164 31.482c.475 1.229.447 2.412-.082 3.608l1.828.809c.746-1.684.785-3.416.119-5.138l-1.865.721zm-.071 3.583c-.549 1.156-1.396 1.941-2.576 2.398l.72 1.865c1.662-.642 2.895-1.79 3.662-3.404l-1.806-.859zm-2.576 2.398-10.494 4.054.72 1.866 10.494-4.055-.72-1.865zm14.383-6.182-.429.903.024.012.025.01.38-.925zm-2.933-3.201-.36-.933-.933.361.36.933.933-.361zm2.624-1.013.932-.361-.36-.933-.933.361.361.933zm15.649-3.88-.892-.452-.012.023-.01.024.914.405zm-3.456-11.385.932-.36-.222-.576-.616-.059-.094.995zm-21.913-2.086-.932.36.222.577.616.058.094-.995zm-2.99-12.13-.915-.405-.005.013-.005.012.925.38zm20.937-3.85.361.933.933-.36-.361-.933-.933.36zm-2.623 1.014-.933.36.36.933.933-.36-.36-.933zm-1.517-1.487-.452.892.047.024.049.018.356-.934zm-14.183 5.48.914.405.011-.024.009-.025-.934-.356zm2.493 8.647-.933.361.223.576.615.059.095-.996zm21.912 2.087.933-.36-.223-.577-.615-.058-.095.995zm3.954 14.867.903.429.006-.012.006-.012-.915-.405zm-13.973 6.023c-1.246.481-2.428.471-3.601-.011l-.76 1.85c1.663.683 3.376.686 5.082.027l-.721-1.866zm-3.552.011c-1.146-.545-1.948-1.413-2.429-2.658l-1.866.721c.659 1.706 1.812 2.971 3.437 3.743l.858-1.806zm-3.002-1.365 2.624-1.014-.721-1.865-2.623 1.013.72 1.866zm1.331-1.586c.38.985 1.044 1.734 1.994 2.155l.81-1.829c-.414-.184-.728-.502-.939-1.047l-1.865.721zm1.994 2.155c.95.42 1.951.408 2.936.027l-.721-1.865c-.545.21-.991.192-1.405.009l-.81 1.829zm2.936.027 10.494-4.054-.721-1.866-10.494 4.055.721 1.865zm10.494-4.054c.952-.368 1.661-1.033 2.073-1.963l-1.829-.81c-.192.434-.496.726-.965.907l.721 1.866zm2.05-1.916c.491-.967.525-1.997.132-3.015l-1.865.721c.198.513.172.951-.051 1.39l1.784.904zm.132-3.015-3.548-9.182-1.865.721 3.548 9.182 1.865-.721zm-4.386-9.817-21.912-2.087-.189 1.991 21.912 2.087.189-1.991zm-21.074-1.452-3.041-7.87-1.865.72 3.041 7.871 1.865-.721zm-3.041-7.87c-.456-1.18-.443-2.336.043-3.52l-1.85-.759c-.679 1.654-.7 3.338-.058 5l1.865-.721zm.032-3.494c.529-1.196 1.386-2.012 2.616-2.487l-.721-1.866c-1.722.666-2.979 1.86-3.724 3.543l1.829.81zm2.616-2.487 10.493-4.055-.72-1.865-10.494 4.054.721 1.866zm10.493-4.055c1.165-.45 2.32-.42 3.526.114l.81-1.829c-1.673-.74-3.379-.799-5.056-.15l.72 1.865zm3.526.114c1.207.534 2.006 1.369 2.456 2.534l1.865-.721c-.648-1.678-1.838-2.901-3.511-3.642l-.81 1.83zm3.028 1.24-2.624 1.014.721 1.866 2.624-1.014-.721-1.866zm-1.33 1.586c-.381-.985-1.103-1.683-2.094-2.06l-.712 1.868c.482.184.772.477.94.913l1.866-.72zm-1.998-2.018c-.946-.48-1.947-.544-2.933-.164l.721 1.866c.436-.169.848-.152 1.308.082l.904-1.784zm-2.933-.164-10.494 4.055.721 1.865 10.494-4.054-.721-1.866zm-10.494 4.055c-1.017.393-1.756 1.111-2.142 2.125l1.868.712c.176-.46.482-.773.995-.972l-.721-1.865zM119.1 94.19c-.412.93-.428 1.902-.06 2.854l1.866-.72c-.181-.47-.17-.89.022-1.324l-1.828-.81zm-.06 2.854 2.534 6.559 1.866-.721-2.534-6.559-1.866.721zm3.372 7.194 21.912 2.087.19-1.991-21.912-2.087-.19 1.991zm21.074 1.451 4.055 10.494 1.866-.72-4.055-10.494-1.866.72zm4.055 10.494c.475 1.23.447 2.412-.082 3.608l1.829.81c.745-1.684.784-3.417.119-5.138l-1.866.72zm-.071 3.584c-.549 1.155-1.396 1.941-2.576 2.397l.721 1.866c1.661-.642 2.894-1.79 3.661-3.405l-1.806-.858zm-2.576 2.397-10.494 4.055.721 1.866 10.494-4.055-.721-1.866zm14.383-6.181-.429.903.024.012.025.01.38-.925zm-13.019-33.695-.914-.405-.006.012-.005.013.925.38zm16.287-8.083.933-.36-.361-.934-.933.36.361.934zm1.014 2.623.36.933.933-.36-.361-.933-.932.36zm-14.687 6.617.915.405.01-.024.01-.025-.935-.356zm3 9.959-.933.36.361.933.933-.36-.361-.933zm13.118-5.068.932-.36-.36-.933-.933.36.361.933zm1.013 2.623.361.933.933-.36-.361-.933-.933.36zm-13.117 5.069-.361-.933-.932.36.36.933.933-.36zm22.836 12.282.933-.36-.36-.933-.933.36.36.933zm1.014 2.623.36.933.933-.36-.36-.933-.933.36zm-13.478 4.136c-1.245.481-2.427.471-3.601-.011l-.76 1.85c1.664.683 3.376.686 5.082.026l-.721-1.865zm-3.552.011c-1.146-.545-1.948-1.413-2.429-2.658l-1.865.72c.659 1.706 1.812 2.972 3.436 3.744l.858-1.806zm-2.429-2.658-10.136-26.235-1.866.72 10.137 26.235 1.865-.72zm-10.136-26.235c-.457-1.18-.444-2.336.042-3.52l-1.85-.76c-.679 1.654-.7 3.34-.058 5l1.866-.72zm.031-3.495c.53-1.195 1.386-2.011 2.616-2.486l-.721-1.866c-1.722.665-2.978 1.86-3.723 3.543l1.828.81zm2.616-2.486 13.117-5.069-.721-1.865-13.117 5.068.721 1.866zm11.824-5.64 1.014 2.623 1.865-.721-1.013-2.624-1.866.721zm1.586 1.33-13.117 5.068.721 1.865 13.117-5.068-.721-1.866zm-13.117 5.068c-1.018.393-1.757 1.111-2.143 2.125l1.869.712c.175-.46.482-.774.995-.972l-.721-1.865zm-2.123 2.076c-.412.93-.427 1.902-.06 2.854l1.866-.72c-.181-.47-.169-.89.023-1.325l-1.829-.809zm-.06 2.854 3.041 7.87 1.866-.72-3.041-7.87-1.866.72zm4.335 8.443 13.117-5.069-.721-1.865-13.117 5.068.721 1.866zm11.824-5.64 1.014 2.623 1.865-.721-1.014-2.624-1.865.721zm1.586 1.33-13.118 5.068.721 1.865 13.118-5.068-.721-1.866zm-13.69 6.36 6.082 15.742 1.866-.721-6.082-15.74-1.866.72zm6.082 15.742c.381.985 1.045 1.734 1.995 2.154l.809-1.829c-.414-.183-.728-.501-.938-1.046l-1.866.721zm1.995 2.154c.949.421 1.95.409 2.935.028l-.72-1.866c-.545.211-.992.193-1.406.009l-.809 1.829zm2.935.028 13.118-5.068-.721-1.866-13.117 5.068.72 1.866zm11.825-5.641 1.013 2.624 1.866-.721-1.014-2.623-1.865.72zm1.586 1.331-13.118 5.068.721 1.865 13.117-5.068-.72-1.865zm27.1-13.262-.892-.453-.012.024-.011.024.915.405zm-11.562-29.925-.452.892.046.024.05.019.356-.934zm-15.238 4.946-.36-.933-.933.36.36.933.933-.36zm12.164 31.482-.933.36.36.933.933-.361-.36-.932zm-1.61 3.637-.933.36.361.933.932-.36-.36-.933zM173.039 70.15l-.361-.933-.932.36.36.933.933-.36zm33.051 27.746.903.429.006-.012.005-.013-.914-.404zm-3.772 1.21c.952-.368 1.66-1.032 2.072-1.963l-1.829-.81c-.192.435-.495.726-.964.908l.721 1.865zm2.05-1.915c.49-.968.525-1.998.132-3.015l-1.866.72c.198.514.172.952-.05 1.39l1.784.905zm.132-3.015L194.363 67.94l-1.865.72 10.136 26.236 1.866-.721zM194.363 67.94c-.38-.985-1.102-1.683-2.093-2.06l-.712 1.868c.482.184.771.477.94.913l1.865-.721zm-1.997-2.018c-.946-.48-1.948-.545-2.933-.164l.721 1.865c.436-.168.847-.15 1.308.082l.904-1.783zm-2.933-.164-13.117 5.068.72 1.866 13.118-5.069-.721-1.865zm-13.69 6.361 12.164 31.482 1.866-.721L177.609 71.4l-1.866.72zm13.457 32.054 13.118-5.068-.721-1.865-13.118 5.068.721 1.865zm-1.037 2.344L173.972 69.79l-1.866.72 14.191 36.729 1.866-.721zm-14.764-35.435L189.14 65l-.721-1.866-15.741 6.082.721 1.866zM189.14 65c1.165-.45 2.32-.42 3.526.114l.81-1.83c-1.674-.74-3.379-.798-5.057-.15l.721 1.866zm3.526.114c1.206.534 2.005 1.369 2.455 2.533l1.866-.72c-.648-1.678-1.838-2.901-3.511-3.642l-.81 1.829zm2.455 2.533 10.137 26.235 1.865-.72-10.136-26.236-1.866.721zm10.137 26.235c.475 1.23.447 2.412-.082 3.608l1.828.81c.746-1.684.785-3.417.119-5.139l-1.865.721zm-.071 3.583c-.55 1.156-1.396 1.942-2.577 2.398l.721 1.866c1.662-.642 2.895-1.79 3.662-3.405l-1.806-.859zm-2.577 2.398-15.74 6.082.72 1.866 15.741-6.082-.721-1.866z" fill="#D3D3D3"/>
    <defs>
        <filter id="14p0q4qfla" x="14.538" y="-1.414" width="265.805" height="201.574" filterUnits="userSpaceOnUse" color-interpolation-filters="sRGB">
            <feFlood flood-opacity="0" result="BackgroundImageFix"/>
            <feGaussianBlur in="BackgroundImage" stdDeviation="2"/>
            <feComposite in2="SourceAlpha" operator="in" result="effect1_backgroundBlur_1672_25435"/>
            <feBlend in="SourceGraphic" in2="effect1_backgroundBlur_1672_25435" result="shape"/>
        </filter>
    </defs>
</svg>
