<svg width="150" height="130" viewBox="0 0 150 130" fill="none" xmlns="http://www.w3.org/2000/svg">
    <g clip-path="url(#1gee1ayj0a)">
        <path d="M83.364 65.95v-2.105c0-11.099 0-22.197-.004-33.296 0-.6-.01-1.193-.043-1.783l.499-.03m-.453 37.214-3.696-46.944c4.267.005 4.21 2.52 4.126 6.242-.025 1.073-.051 2.246.023 3.488m-.453 37.214h.5l1.797-.002c1.137-.001 2.23-.002 3.327.002m-5.623 0h5.623m-5.171-37.214c.035.604.044 1.208.044 1.813.004 11.099.004 22.197.004 33.296v1.605h.5l1.293-.002c1.138-.001 2.235-.002 3.332.002m-5.173-36.714 13.878 7.424m0 0c.404.408.83.798 1.274 1.205l.26.238.17-.085.222.447-.342.366a36.76 36.76 0 0 0-.131-.123c-7.115 3.782-9.135 10.774-7.053 16.139m5.6-18.187a843.979 843.979 0 0 1-6.065-6.157m6.065 6.157-6.065-6.157m.465 24.344c1.178 3.033 3.05 5.479 5.896 7.016 3.451 1.866 7.036 2.31 10.789.783v-.214h.5l.206.456-.206.09V93.626c0 .53.004 1.06.007 1.59.007 1.205.015 2.409-.016 3.611-.067 2.517-1.885 4.662-4.352 5.217-1.898.424-4.359-.936-5.276-3.091m-7.548-46.605.466-.181-.466.18zm7.548 46.605c-.366-.856-.496-1.87-.503-2.814m.503 2.814-.46.196.46-.196zm-.503-2.814c-.02-2.846-.016-5.693-.012-8.539.007-4.812.014-9.625-.096-14.435-.124-5.502-4.636-9.688-10.042-9.714m10.15 32.688-.5.004c-.02-2.856-.016-5.706-.012-8.554.007-4.807.014-9.607-.096-14.413-.118-5.218-4.396-9.2-9.544-9.225m10.152 32.188L88.987 65.95m.002-.5-.002.5m.002-.5-.002.5m2.642-35.947c-1.563-1.607-.995-2.185.68-3.89l.524-.537c2.066-2.139 2.864-2.819 4.355-1.314a3648.423 3648.423 0 0 1 16.342 16.595c2.464 2.52 3.699 5.469 3.435 9.145-.166 2.317-.127 4.65-.088 6.982.017 1.018.034 2.035.034 3.052 0 3.87.002 7.739.004 11.609.006 9.19.011 18.381-.014 27.572-.025 9.268-10.376 15.706-18.481 11.433-4.792-2.527-6.884-6.897-6.96-12.211-.078-5.538-.06-11.078-.043-16.618.007-2.361.014-4.722.014-7.084l.198-44.734zm.33 68.428c-.077-5.533-.06-11.065-.043-16.603.008-2.363.015-4.726.015-7.09V72.75h-8.57V83.962c.002 8.462.003 17.635-.004 25.219 0 .716-.085 1.106-.195 1.323-.089.177-.205.263-.42.325-.223.064-.497.086-.89.117l-.202.016c-.48.04-1.06.1-1.718.277-.425.115-.896.141-1.398.141-13.426.01-26.849.01-40.274.004-.391 0-.741.006-1.072.012-.367.007-.709.013-1.053.01-.63-.007-1.129-.049-1.52-.167-.374-.114-.625-.29-.797-.566-.181-.292-.308-.75-.308-1.491-.01-25.757-.02-54.108.01-79.864 0-.56-.005-1.102-.01-1.625-.008-.862-.016-1.674.003-2.443.03-1.229.13-2.28.39-3.136.257-.845.661-1.475 1.29-1.904.638-.434 1.565-.702 2.94-.704 10.128-.01 31.406-.01 41.533 0L91.96 98.431zm-8.099-23.72v-.96l-5.326 38.129c.512 0 1.038-.026 1.528-.158.7-.189 1.31-.237 1.823-.277 1.287-.101 1.97-.155 1.972-2.263.007-7.585.006-16.758.004-25.22v-9.25z" stroke="#fff"/>
        <path d="M62.122 38.443 43.807 72.02a1 1 0 0 0 .877 1.479H52.5a1 1 0 0 1 1 1v18.632c0 1.032 1.374 1.387 1.875.484l17.802-32.131A1 1 0 0 0 72.303 60H65a1 1 0 0 1-1-1V38.922c0-1.036-1.382-1.389-1.878-.48z" fill="#CAFF86" fill-opacity=".4" stroke="#CAFF86"/>
        <g filter="url(#u81mzoyf8b)">
            <circle cx="104" cy="50" r="4" fill="#CAFF86"/>
        </g>
    </g>
    <defs>
        <clipPath id="1gee1ayj0a">
            <path fill="#fff" transform="translate(33 19)" d="M0 0h84v93H0z"/>
        </clipPath>
        <filter id="u81mzoyf8b" x="93" y="39" width="22" height="22" filterUnits="userSpaceOnUse" color-interpolation-filters="sRGB">
            <feFlood flood-opacity="0" result="BackgroundImageFix"/>
            <feColorMatrix in="SourceAlpha" values="0 0 0 0 0 0 0 0 0 0 0 0 0 0 0 0 0 0 127 0" result="hardAlpha"/>
            <feMorphology radius="2" operator="dilate" in="SourceAlpha" result="effect1_dropShadow_616_7257"/>
            <feOffset/>
            <feGaussianBlur stdDeviation="2.5"/>
            <feComposite in2="hardAlpha" operator="out"/>
            <feColorMatrix values="0 0 0 0 0.792157 0 0 0 0 1 0 0 0 0 0.52549 0 0 0 0.4 0"/>
            <feBlend in2="BackgroundImageFix" result="effect1_dropShadow_616_7257"/>
            <feBlend in="SourceGraphic" in2="effect1_dropShadow_616_7257" result="shape"/>
        </filter>
    </defs>
</svg>
