<svg width="60" height="59" viewBox="0 0 60 59" fill="none" xmlns="http://www.w3.org/2000/svg">
    <mask id="8f5de3r7ia" fill="#fff">
        <path fill-rule="evenodd" clip-rule="evenodd" d="M.749 7.628A10.014 10.014 0 0 0 0 11.437c0 5.658 4.694 10.245 10.484 10.245 1.405 0 2.745-.27 3.97-.76l24.133 23.279a7.463 7.463 0 0 0-.206 1.744c0 4.203 3.486 7.61 7.787 7.61 4.3 0 7.786-3.407 7.786-7.61 0-4.202-3.486-7.608-7.786-7.608-.453 0-.897.037-1.328.11l-24.466-23.6a10.02 10.02 0 0 0 .595-3.41c0-5.659-4.694-10.246-10.485-10.246-1.37 0-2.68.258-3.88.725l5.48 5.287-1.179 4.292-4.632 1.461L.749 7.628z"/>
    </mask>
    <path d="m.749 7.628.694-.72-1.06-1.023-.56 1.363.926.38zm13.705 13.294.694-.72-.466-.449-.6.24.372.929zm24.133 23.279.972.233.134-.556-.412-.397-.694.72zm6.253-5.754-.695.72.363.35.497-.084-.165-.986zm-24.466-23.6-.94-.34-.22.61.466.45.694-.72zM6.604 1.917 6.24.983l-1.456.567L5.91 2.636l.694-.72zm5.48 5.286.965.265.157-.573-.427-.412-.694.72zm-1.179 4.292.301.953.52-.163.143-.525-.964-.265zm-4.632 1.461-.695.72.428.413.567-.18-.3-.953zm-6.45-5.708A11.013 11.013 0 0 0-1 11.437h2c0-1.214.24-2.37.674-3.43l-1.85-.759zM-1 11.437c0 6.232 5.164 11.245 11.484 11.245v-2C5.224 20.682 1 16.52 1 11.437h-2zm11.484 11.245c1.534 0 3-.295 4.341-.832l-.743-1.857a9.667 9.667 0 0 1-3.598.689v2zm3.275-1.04L37.892 44.92l1.389-1.44-24.133-23.279-1.389 1.44zm23.855 22.326a8.468 8.468 0 0 0-.233 1.977h2c0-.52.062-1.026.178-1.51l-1.945-.467zm-.233 1.977c0 4.777 3.956 8.61 8.787 8.61v-2c-3.77 0-6.787-2.981-6.787-6.61h-2zm8.787 8.61c4.83 0 8.786-3.833 8.786-8.61h-2c0 3.629-3.016 6.61-6.786 6.61v2zm8.786-8.61c0-4.776-3.955-8.608-8.786-8.608v2c3.77 0 6.786 2.98 6.786 6.608h2zm-8.786-8.608c-.509 0-1.008.042-1.494.123l.331 1.973a7.015 7.015 0 0 1 1.163-.096v-2zm-.634.39-24.466-23.6-1.388 1.44 24.465 23.6 1.389-1.44zm-24.22-22.54c.424-1.175.655-2.437.655-3.75h-2c0 1.077-.19 2.11-.536 3.07l1.881.68zm.655-3.75C21.969 5.204 16.805.19 10.484.19v2c5.26 0 9.485 4.161 9.485 9.246h2zM10.484.19c-1.496 0-2.929.281-4.243.793l.726 1.864a9.67 9.67 0 0 1 3.517-.657v-2zM5.91 2.636l5.48 5.287 1.389-1.44-5.48-5.287-1.39 1.44zm5.21 4.302L9.941 11.23l1.928.53 1.18-4.292-1.929-.53zm-.516 3.603-4.632 1.461.601 1.908 4.633-1.462-.602-1.907zm-3.637 1.695L1.443 6.908.054 8.348l5.524 5.328 1.389-1.44z" fill="#fff" mask="url(#8f5de3r7ia)"/>
    <path d="M46.703 10.758 33.185 24.299l-1.646-1.57L45.343 8.904l.109-.11.027-.15.57-3.183 6.237-3.28 1.688 1.608L50.475 9.8l-3.527.822-.142.033-.103.103zM4.272 45.345 19.56 30.067l6.894 6.587L11.166 51.93c-1.862 1.861-4.915 1.896-6.819.077a4.636 4.636 0 0 1-.075-6.663z" stroke="#fff"/>
    <path transform="scale(1.01147 .9884) rotate(-45 62.483 17.874)" stroke="#fff" d="M0-.5h21.088"/>
    <path transform="scale(1.01147 .9884) rotate(45 -15.563 33.592)" stroke="#fff" d="M0-.5h26.624"/>
    <path transform="scale(1.01147 .9884) rotate(-45 66.247 15.952)" stroke="#fff" d="M0-.5h21.088"/>
    <g filter="url(#mg9isu9kob)">
        <ellipse cx="46.162" cy="45.742" rx="1.95" ry="1.906" fill="#CAFF86"/>
    </g>
    <defs>
        <filter id="mg9isu9kob" x="33.211" y="32.836" width="25.901" height="25.813" filterUnits="userSpaceOnUse" color-interpolation-filters="sRGB">
            <feFlood flood-opacity="0" result="BackgroundImageFix"/>
            <feColorMatrix in="SourceAlpha" values="0 0 0 0 0 0 0 0 0 0 0 0 0 0 0 0 0 0 127 0" result="hardAlpha"/>
            <feMorphology radius="3" operator="dilate" in="SourceAlpha" result="effect1_dropShadow_1550_22752"/>
            <feOffset/>
            <feGaussianBlur stdDeviation="4"/>
            <feComposite in2="hardAlpha" operator="out"/>
            <feColorMatrix values="0 0 0 0 0.792157 0 0 0 0 1 0 0 0 0 0.52549 0 0 0 0.4 0"/>
            <feBlend in2="BackgroundImageFix" result="effect1_dropShadow_1550_22752"/>
            <feBlend in="SourceGraphic" in2="effect1_dropShadow_1550_22752" result="shape"/>
        </filter>
    </defs>
</svg>
