<svg width="34" height="31" viewBox="0 0 34 31" fill="none" xmlns="http://www.w3.org/2000/svg">
    <g filter="url(#5jzjugrsja)">
        <path fill-rule="evenodd" clip-rule="evenodd" d="M9.62 17.788a.91.91 0 0 1-1.286-1.286l6.478-6.478a.1.1 0 0 1 .143 0l6.478 6.478a.91.91 0 1 1-1.286 1.286l-5.264-5.263-5.263 5.263z" fill="#CAFF86"/>
    </g>
    <mask id="7dyzd2g4cb" style="mask-type:alpha" maskUnits="userSpaceOnUse" x="8" y="9" width="14" height="10">
        <path fill-rule="evenodd" clip-rule="evenodd" d="M9.62 17.788a.91.91 0 0 1-1.286-1.286l6.478-6.478a.1.1 0 0 1 .143 0l6.478 6.478a.91.91 0 1 1-1.286 1.286l-5.264-5.263-5.263 5.263z" fill="#fff"/>
    </mask>
    <defs>
        <filter id="5jzjugrsja" x="-19.115" y="-17.188" width="67.996" height="62.425" filterUnits="userSpaceOnUse" color-interpolation-filters="sRGB">
            <feFlood flood-opacity="0" result="BackgroundImageFix"/>
            <feGaussianBlur in="BackgroundImageFix" stdDeviation="13.591"/>
            <feComposite in2="SourceAlpha" operator="in" result="effect1_backgroundBlur_1722_32490"/>
            <feColorMatrix in="SourceAlpha" values="0 0 0 0 0 0 0 0 0 0 0 0 0 0 0 0 0 0 127 0" result="hardAlpha"/>
            <feOffset dx="2" dy="2"/>
            <feGaussianBlur stdDeviation="5"/>
            <feColorMatrix values="0 0 0 0 0.0901961 0 0 0 0 0.207843 0 0 0 0 0.34902 0 0 0 0.1 0"/>
            <feBlend in2="effect1_backgroundBlur_1722_32490" result="effect2_dropShadow_1722_32490"/>
            <feBlend in="SourceGraphic" in2="effect2_dropShadow_1722_32490" result="shape"/>
        </filter>
    </defs>
</svg>
