<svg width="20" height="20" viewBox="0 0 20 20" fill="none" xmlns="http://www.w3.org/2000/svg">
    <path d="m18.224 5.836-.003.003v.002a14.782 14.782 0 0 1-.67.755 17.223 17.223 0 0 1-1.794 1.636c-1.51 1.189-3.552 2.35-5.757 2.35-2.205 0-4.247-1.161-5.757-2.35a17.216 17.216 0 0 1-2.288-2.181 9.317 9.317 0 0 1-.175-.21l-.001-.002-.004-.004a.672.672 0 0 0-.936-.113.584.584 0 0 0-.228.324.677.677 0 0 0 .023.385c.08.241.271.502.508.766.365.409.893.883 1.451 1.385l.364.328-1.164 1.164-.002.003a.672.672 0 0 0 .447 1.138c.051.01.099.004.135-.004.047-.011.09-.03.13-.05.078-.041.162-.101.245-.169a7.07 7.07 0 0 0 .55-.514c.14-.143.281-.29.405-.421a57.595 57.595 0 0 1 .304-.316c1.438 1.031 3.275 1.974 5.324 2.148v1.861a.669.669 0 1 0 1.338 0v-1.861c2.048-.174 3.893-1.116 5.324-2.148a10.437 10.437 0 0 1 .309.32c.123.13.263.278.402.42.186.189.38.376.548.511.083.067.167.127.245.168.039.02.083.04.129.05a.326.326 0 0 0 .136.005.672.672 0 0 0 .447-1.138l-.002-.003-1.157-1.157a16.908 16.908 0 0 0 2.223-2.25l-.154-.126.157.123a.67.67 0 0 0-.853-.998.67.67 0 0 0-.199.17z" fill="#989898" stroke="#989898" stroke-width=".4"/>
</svg>
