<svg width="150" height="130" viewBox="0 0 150 130" fill="none" xmlns="http://www.w3.org/2000/svg">
    <path fill-rule="evenodd" clip-rule="evenodd" d="M103.481 64.096c-6.445 8.53-16.638 14.036-28.108 14.036-19.49 0-35.29-15.899-35.29-35.51 0-19.613 15.8-35.512 35.29-35.512s35.29 15.899 35.29 35.511c0 2.71-.301 5.348-.872 7.883.366.065.723.155 1.07.269.592-2.622.905-5.35.905-8.152C111.766 22.396 95.472 6 75.373 6c-20.1 0-36.394 16.396-36.394 36.621s16.294 36.621 36.394 36.621c11.836 0 22.353-5.686 29-14.492a7.78 7.78 0 0 1-.892-.654z" fill="#fff"/>
    <g filter="url(#hpapm9pdja)">
        <ellipse cx="108.458" cy="57.603" rx="3.86" ry="3.884" fill="#CAFF86"/>
    </g>
    <path d="M98.174 125.498a1914.933 1914.933 0 0 0 6.262-12.753v-.001l.449.22c.254-.52.473-.876 1.197-.81l-7.908 13.344zm0 0c-.499 1.005-1.219 1.682-1.996 2.004-.77.319-1.626.303-2.45-.124-.618-.319-1.23-.868-1.554-1.442v-.001c-6.279-11.129-12.528-22.277-18.778-33.425l-3.901-6.96C83.112 86.925 94.91 83.1 104.93 73.74c.086.14.165.27.243.407a70976.99 70976.99 0 0 1 18.676 33.305c.618 1.102.775 2.205.557 3.098-.215.879-.801 1.589-1.759 1.943-.963.354-2.158.317-3.354.238a575.592 575.592 0 0 1-13.167-1.074l-7.953 13.842zM44.938 73.499c3.78 3.665 7.966 6.526 12.651 8.665m-12.651-8.665 12.651 8.665m-12.651-8.665a41418.226 41418.226 0 0 1-4.48 8.085c-4.815 8.692-9.63 17.382-14.427 26.084m18.907-34.17 24.766 29.709M57.589 82.164l.207-.454-.207.454zm12.115 21.043c.13.233.174.382.178.502.003.115-.027.262-.157.491v.001A5916.97 5916.97 0 0 0 60.1 121.39l-2.425 4.342m12.03-22.525.435-.245-.435.246v-.001zm-12.03 22.525c-.366.652-.798 1.143-1.304 1.465-.501.32-1.101.491-1.838.466h-.001c-.735-.024-1.314-.239-1.788-.596-.48-.361-.876-.885-1.205-1.562m6.136.227.435.243-.435-.244v.001zm-6.136-.227c-.673-1.387-1.35-2.77-2.028-4.152a649.328 649.328 0 0 1-4.073-8.413m6.101 12.565-.45.219m.45-.219-.45.219m-5.65-12.784c-.234-.494-.522-.864-.95-1.066-.41-.193-.868-.192-1.332-.152-4.661.41-9.322.79-13.986 1.055m16.267.163-.452.213m.452-.213v-.001l-.452.214m-15.815-.376c-1.507.085-2.632-.563-3.213-1.509-.583-.948-.66-2.265.074-3.6m3.139 5.109.028.499-.028-.499zm-3.139-5.109-.438-.241.438.241zm18.954 5.485c1.332 2.82 2.705 5.622 4.078 8.425.677 1.381 1.354 2.762 2.026 4.146m-6.104-12.571c-.417-.882-.883-1.012-1.785-.933l7.889 13.504" stroke="#fff"/>
    <path d="m87.539 47.264.012-.01c1.905-1.664 3.876-3.656 5.748-5.743l.372.333c.093-.104.19-.207.289-.312.605-.641 1.268-1.344 1.292-2.653l-7.713 8.385zm0 0-.012.012m.012-.012-.012.012m0 0c-.323.322-.56.665-.687 1.063-.128.399-.133.81-.057 1.247l.744-2.31zM83.371 61.73c1.242.688 2.438.682 3.55-.114.573-.41.947-.89 1.154-1.429.208-.54.26-1.171.136-1.9l-4.84 3.443zm0 0c-.593-.328-1.186-.652-1.778-.976-1.77-.969-3.533-1.933-5.265-2.956m7.043 3.932-7.044-3.933m0 0c-.444-.262-.875-.408-1.332-.395-.452.013-.867.18-1.282.423m2.614-.028-2.615.029m0 0a166.619 166.619 0 0 1-4.106 2.31c-.875.481-1.753.964-2.632 1.46m6.738-3.77-6.739 3.77m0 0c-.675.383-1.321.602-1.938.627m1.939-.626-1.939.626m1.675-28.48c.432-.076.936-.54 1.143-.956a226.916 226.916 0 0 0 3.598-7.654c.702-1.573 1.85-2.392 3.539-2.408 1.738-.015 2.922.807 3.642 2.43L58.614 43.971c-.753-.785-1.506-1.57-2.267-2.347-1.14-1.166-1.598-2.496-1.059-4.075.56-1.639 1.81-2.341 3.451-2.571 2.662-.369 5.324-.763 7.97-1.236zm0 0 .086.492m-.087-.493.088.493M55.76 37.71c-.24.703-.251 1.326-.092 1.895.162.575.507 1.128 1.035 1.668l-.943-3.563zm0 0c.248-.725.639-1.22 1.133-1.566.503-.35 1.143-.564 1.914-.672 2.664-.37 5.333-.764 7.989-1.238M55.76 37.71l19.233-14.486c-.76.007-1.369.194-1.86.532-.494.34-.904.857-1.226 1.58A227.124 227.124 0 0 1 68.3 33.01v.001a2.54 2.54 0 0 1-.61.762c-.24.207-.555.403-.894.463m11.378-8.877c-.332-.747-.754-1.276-1.262-1.618-.505-.34-1.132-.522-1.918-.515l3.18 2.133zm0 0a210.168 210.168 0 0 0 3.61 7.67m-3.61-7.67 3.61 7.67m-16.75 29.195c-.606.025-1.215-.136-1.83-.561l1.83.56zm-2.37-8.948c-.251 1.588-.504 3.185-.79 4.756l.79-4.756zm0 0c.19-1.209.38-2.413.585-3.6l-.586 3.6zm19.12-20.247c.14.282.37.55.62.759m-.62-.76.62.76m0 0c.245.204.56.392.894.451l-.895-.451zm11.288 2.815c.55.57.92 1.347 1.058 2.306L83.3 34.238c2.108.37 4.227.68 6.338.988l1.763.259c.969.146 1.736.54 2.292 1.117zm-30.488 25.06c-.638-.442-1.03-.96-1.237-1.543-.208-.59-.24-1.282-.094-2.088l1.33 3.63z" fill="#CAFF86" fill-opacity=".2" stroke="#CAFF86"/>
    <defs>
        <filter id="hpapm9pdja" x="89.598" y="38.719" width="37.72" height="37.768" filterUnits="userSpaceOnUse" color-interpolation-filters="sRGB">
            <feFlood flood-opacity="0" result="BackgroundImageFix"/>
            <feColorMatrix in="SourceAlpha" values="0 0 0 0 0 0 0 0 0 0 0 0 0 0 0 0 0 0 127 0" result="hardAlpha"/>
            <feMorphology radius="4" operator="dilate" in="SourceAlpha" result="effect1_dropShadow_616_7204"/>
            <feOffset/>
            <feGaussianBlur stdDeviation="5.5"/>
            <feComposite in2="hardAlpha" operator="out"/>
            <feColorMatrix values="0 0 0 0 0.792157 0 0 0 0 1 0 0 0 0 0.52549 0 0 0 0.4 0"/>
            <feBlend in2="BackgroundImageFix" result="effect1_dropShadow_616_7204"/>
            <feBlend in="SourceGraphic" in2="effect1_dropShadow_616_7204" result="shape"/>
        </filter>
    </defs>
</svg>
