<svg width="150" height="130" viewBox="0 0 150 130" fill="none" xmlns="http://www.w3.org/2000/svg">
    <path d="M70.571 116.307c-.724-.108-1.44-.2-2.15-.291-1.426-.183-2.826-.363-4.216-.668-12.136-2.663-22.132-8.843-29.713-18.66-9.972-12.914-13.166-27.492-9.563-43.366 3.17-13.955 11.118-24.718 23.282-32.236 10.909-6.74 22.824-8.898 35.465-6.842 8.786 1.429 16.675 5.007 23.583 10.634 9.911 8.072 16.093 18.39 18.425 30.979.233 1.255.403 2.515.574 3.788.078.582.157 1.166.242 1.754V68.638c-.072.528-.137 1.052-.202 1.572-.137 1.102-.272 2.19-.463 3.278-2.01 11.492-7.227 21.264-15.757 29.221l.342.365-.342-.365c-7.374 6.879-16.042 11.228-25.986 12.99-1.239.22-2.48.389-3.733.56-.566.078-1.135.155-1.707.238H71.436l-.193-.047a7.489 7.489 0 0 0-.672-.143zm0 0h.001l-.074.495.072-.495h.001zm44.758-56.205.823.424-.096-.92c-1.901-18.239-18.35-36.446-41.67-36.031C50.392 24 35.538 43.222 34.065 59.433l-.08.875.793-.378c26.879-12.822 53.716-13.68 80.551.172zm-79.86 15.836-.288.18.061.334c.015.08.025.149.036.224l.02.143c.02.128.047.275.098.425 4.932 14.557 14.827 23.911 29.625 28.05.504.141.986.179 1.423-.033.43-.208.706-.605.929-1.062 2.952-6.078 2.744-12.197.173-18.25-3.215-7.576-11.15-15.893-23.235-13.32-3.084.655-6.082 1.59-8.841 3.309zm49.668 29.08.21.303.351-.11c14.523-4.547 24.405-13.762 29.054-28.336.117-.368.217-.685.266-.946.049-.264.065-.556-.07-.835-.133-.276-.369-.449-.602-.581-.234-.132-.545-.265-.907-.42h-.001c-6.629-2.82-13.071-2.04-19.234 1.223-5.356 2.834-9.394 6.983-11.208 12.975-1.08 3.561-.72 7.17-.218 10.664a13.834 13.834 0 0 0 2.359 6.063z" stroke="#fff"/>
    <g filter="url(#aafzwu74ga)">
        <circle cx="75" cy="65" r="6" fill="#CAFF86"/>
    </g>
    <defs>
        <filter id="aafzwu74ga" x="54" y="44" width="42" height="42" filterUnits="userSpaceOnUse" color-interpolation-filters="sRGB">
            <feFlood flood-opacity="0" result="BackgroundImageFix"/>
            <feColorMatrix in="SourceAlpha" values="0 0 0 0 0 0 0 0 0 0 0 0 0 0 0 0 0 0 127 0" result="hardAlpha"/>
            <feMorphology radius="4" operator="dilate" in="SourceAlpha" result="effect1_dropShadow_319_712"/>
            <feOffset/>
            <feGaussianBlur stdDeviation="5.5"/>
            <feComposite in2="hardAlpha" operator="out"/>
            <feColorMatrix values="0 0 0 0 0.792157 0 0 0 0 1 0 0 0 0 0.52549 0 0 0 0.4 0"/>
            <feBlend in2="BackgroundImageFix" result="effect1_dropShadow_319_712"/>
            <feBlend in="SourceGraphic" in2="effect1_dropShadow_319_712" result="shape"/>
        </filter>
    </defs>
</svg>
