<?xml version="1.0" encoding="utf-8"?>
<!-- Generator: Adobe Illustrator 24.3.0, SVG Export Plug-In . SVG Version: 6.00 Build 0)  -->
<svg version="1.1" id="圖層_1" xmlns="http://www.w3.org/2000/svg" xmlns:xlink="http://www.w3.org/1999/xlink" x="0px" y="0px"
	 viewBox="0 0 28 28" style="enable-background:new 0 0 28 28;" xml:space="preserve">
<style type="text/css">
	.st0{fill-rule:evenodd;clip-rule:evenodd;fill:#FFFFFF;filter:url(#Adobe_OpacityMaskFilter);}
	.st1{mask:url(#mask0_298_756_1_);}
	.st2{fill-rule:evenodd;clip-rule:evenodd;fill:#999999;}
</style>
<defs>
	<filter id="Adobe_OpacityMaskFilter" filterUnits="userSpaceOnUse">
		<feColorMatrix  type="matrix" values="1 0 0 0 0  0 1 0 0 0  0 0 1 0 0  0 0 0 1 0"/>
	</filter>
</defs>
<mask maskUnits="userSpaceOnUse" id="mask0_298_756_1_">
	<path class="st0" d="M15.9-12.8c0.3-0.3,0.7-0.3,1,0c0.3,0.3,0.3,0.7,0,1l-5,5c0,0-0.1,0-0.1,0l-5-5c-0.3-0.3-0.3-0.7,0-1
		c0.3-0.3,0.7-0.3,1,0l4,4L15.9-12.8z"/>
</mask>
<g class="st1">
</g>
<g>
	<path class="st2" d="M17.9,11.3c0.3-0.3,0.7-0.3,0.9,0c0.3,0.3,0.3,0.7,0,0.9l-4.8,4.6c0,0-0.1,0-0.1,0l-4.8-4.6
		c-0.3-0.3-0.3-0.7,0-0.9c0.3-0.3,0.7-0.3,0.9,0l3.9,3.8L17.9,11.3z"/>
</g>
</svg>
