<svg width="64" height="64" viewBox="0 0 64 64" fill="none" xmlns="http://www.w3.org/2000/svg">
    <path fill-rule="evenodd" clip-rule="evenodd" d="M21.333 24.001h21.334v-5.333c0-5.891-4.776-10.667-10.667-10.667s-10.667 4.776-10.667 10.667v5.333zm-5.333 0a5.333 5.333 0 0 0-5.333 5.334V56A5.333 5.333 0 0 0 16 61.335h32A5.333 5.333 0 0 0 53.333 56V29.335A5.333 5.333 0 0 0 48 24v-5.333c0-8.837-7.163-16-16-16s-16 7.163-16 16v5.333zm18.667 19.287a5.333 5.333 0 1 0-5.333 0v6.047a2.667 2.667 0 1 0 5.333 0v-6.047z" fill="#fff"/>
</svg>
