<svg width="32" height="28" viewBox="0 0 32 28" fill="none" xmlns="http://www.w3.org/2000/svg">
    <g filter="url(#nvvprjbvka)">
        <path fill-rule="evenodd" clip-rule="evenodd" d="M17.898 9.16a.697.697 0 0 1 .986.986l-4.967 4.966c-.03.03-.079.03-.11 0l-4.966-4.967a.697.697 0 0 1 .986-.986l4.036 4.036 4.035-4.035z" fill="#999"/>
    </g>
    <mask id="qjsk72pgfb" style="mask-type:alpha" maskUnits="userSpaceOnUse" x="8" y="8" width="12" height="8">
        <path fill-rule="evenodd" clip-rule="evenodd" d="M17.898 9.16a.697.697 0 0 1 .986.986l-4.967 4.966c-.03.03-.079.03-.11 0l-4.966-4.967a.697.697 0 0 1 .986-.986l4.036 4.036 4.035-4.035z" fill="#fff"/>
    </mask>
    <defs>
        <filter id="nvvprjbvka" x="-18.546" y="-18.227" width="64.816" height="60.545" filterUnits="userSpaceOnUse" color-interpolation-filters="sRGB">
            <feFlood flood-opacity="0" result="BackgroundImageFix"/>
            <feGaussianBlur in="BackgroundImage" stdDeviation="13.591"/>
            <feComposite in2="SourceAlpha" operator="in" result="effect1_backgroundBlur_292_3943"/>
            <feColorMatrix in="SourceAlpha" values="0 0 0 0 0 0 0 0 0 0 0 0 0 0 0 0 0 0 127 0" result="hardAlpha"/>
            <feOffset dx="2" dy="2"/>
            <feGaussianBlur stdDeviation="5"/>
            <feColorMatrix values="0 0 0 0 0.0901961 0 0 0 0 0.207843 0 0 0 0 0.34902 0 0 0 0.1 0"/>
            <feBlend in2="effect1_backgroundBlur_292_3943" result="effect2_dropShadow_292_3943"/>
            <feBlend in="SourceGraphic" in2="effect2_dropShadow_292_3943" result="shape"/>
        </filter>
    </defs>
</svg>
