<svg width="150" height="130" viewBox="0 0 150 130" fill="none" xmlns="http://www.w3.org/2000/svg">
    <path d="m38.73 70.878-.431.586c-.433.588-.861 1.162-1.283 1.727-.999 1.34-1.964 2.634-2.883 3.962-2.055 2.963-3.862 6.023-4.022 9.537-.27 5.897-.227 11.815-.167 17.738.022 2.212.616 4.156 2.668 5.279l-.239.439c.227.123.293.686.296 1.046l6.062-40.314zm0 0-.702-.192m.703.192-.703-.192m-4.205-7.962c-1.819.016-3.004 1.163-3.067 2.901-.07 1.861 1.087 3.723 2.859 4.348l.208-7.249zm0 0c2.478-.025 4.956-.044 7.434.016m-7.434-.016 7.434.016m-3.23 7.946c-.51-.14-.994-.264-1.458-.382-.995-.255-1.898-.486-2.786-.802h-.002m4.247 1.184-4.246-1.184m0 0c-1.548-.547-2.588-2.196-2.527-3.858m2.527 3.858-2.527-3.859m0 0c.028-.756.296-1.348.72-1.752.426-.405 1.049-.66 1.852-.667h.001m-2.573 2.42 2.573-2.42m0 0c2.478-.025 4.948-.044 7.416.016m-7.416-.016 7.417.016m0 0c.459.011.864-.066 1.216-.291.346-.222.581-.551.775-.928l-.444-.229m-1.547 1.448 16.352-18.127m0 0c-3.83.545-6.66 2.162-8.43 5.604-1.029 2.002-2.092 4.01-3.153 6.015-.935 1.768-1.87 3.534-2.778 5.29l-.444-.23m14.805-16.68c7.8-1.11 15.634-.993 23.505-.876m-23.505.877 23.505-.877m-38.31 17.556c-.35.68-.74.967-1.535.948m1.535-.948-1.535.948m78.35 46.956c2.107-1.198 2.632-3.181 2.657-5.528.027-2.526.024-5.052.022-7.582v-.104c-.003-2.494-.006-4.99.019-7.487.024-2.299-.472-4.468-1.323-6.6-1.263-3.165-3.281-5.851-5.346-8.6l-.495-.659-.001-.001a62.684 62.684 0 0 1-.815-1.136l-.398-.56-.411-.576.681-.195.419-.12.285-.082h.001c.442-.128.875-.24 1.3-.35.934-.243 1.828-.475 2.687-.84.691-.293 1.286-.96 1.656-1.795.37-.833.485-1.765.294-2.523-.162-.639-.459-1.044-.926-1.309-.493-.28-1.23-.434-2.325-.434-.617 0-1.232-.003-1.845-.005a175.665 175.665 0 0 0-4.751.024l8.615 46.462zm0 0a.942.942 0 0 0-.336.339 1.612 1.612 0 0 0-.163.368c-.076.24-.114.506-.116.726a330.715 330.715 0 0 0-.016 4.566c.001 1.011.002 2.021-.003 3.025-.004.901-.262 1.568-.683 2.011-.418.441-1.054.718-1.934.734h-.001c-2.745.05-5.495.041-8.245.012-1.018-.012-1.699-.276-2.136-.715-.439-.441-.71-1.137-.739-2.18a81.036 81.036 0 0 1-.019-2.428c.002-1.329.005-2.68-.093-3.994l14.484-2.464zM92.652 96.34c2.627 0 5.019.853 6.811 2.876 3.253 3.673 5.295 7.967 5.66 12.944L92.652 96.34zm0 0c-11.015-.007-22.03-.007-33.042-.004m33.042.004-40.993 4.128c1.916-2.69 4.6-4.132 7.951-4.132m0 0v.5-.5zM46.163 65.811c-.096.206-.175.45-.242.66a9.431 9.431 0 0 1-.077.234l-.204.584.614.077c19.952 2.502 39.81 2.502 59.672.013l.492-.062-.058-.492-.003-.047a1.33 1.33 0 0 0-.003-.068.802.802 0 0 0-.067-.296l-.002-.006c-.603-1.285-1.201-2.574-1.8-3.864-1.589-3.422-3.181-6.85-4.857-10.236-1.116-2.254-3.085-3.598-5.686-3.737-.913-.05-1.828-.1-2.744-.152a369.388 369.388 0 0 0-7.507-.373c-8.434-.304-16.856-.095-25.266.497-1.49.104-2.746.558-3.786 1.328-1.038.767-1.836 1.83-2.444 3.115-1.898 4.003-3.776 8.012-5.656 12.022l-.376.803zm0 0 .45.211-.45-.21zm-6.073 42.377c-3.039-.042-5.59-2.635-5.572-5.673l5.572 5.673zm0 0c3.107.041 5.66-2.555 5.636-5.696v-.001m-5.636 5.697 5.636-5.697m0 0c-.028-3.143-2.458-5.552-5.599-5.545a5.59 5.59 0 0 0-5.61 5.569l11.209-.024zm35.376-58.255c.972.014 1.945.029 2.918.041m-2.918-.041 2.918.041m0 0c3.675.047 7.356.518 11.052.99m-11.052-.99 11.052.99m0 0 .849.109m-.85-.108.85.108m0 0c3.154.403 5.448 2.192 6.959 5.062m-6.96-5.062 6.96 5.062m0 0c.706 1.341 1.415 2.679 2.124 4.015m-2.124-4.016 2.124 4.017m0 0a780.433 780.433 0 0 1 3.987 7.589m-3.987-7.59 3.987 7.59m0 0c.204.398.454.723.81.933m-.81-.933.81.933m0 0c.356.21.757.268 1.191.258l-1.191-.258zm2.271 33.967c3.131.007 5.568 2.445 5.568 5.578l-5.568-5.578zm0 0c-3.107-.007-5.601 2.45-5.615 5.551m5.615-5.551-5.615 5.551m0 0c-.017 3.121 2.571 5.742 5.656 5.694m-5.656-5.694 5.656 5.694m0 0c3.096-.049 5.53-2.554 5.527-5.667l-5.527 5.667zm-49.87-16.859a2797.8 2797.8 0 0 0 27.728 0c3.5-.017 6.58-2.777 7.217-6.175.144-.773.152-1.493-.255-2.008-.414-.523-1.114-.658-1.888-.66-6.296-.003-12.589-.003-18.88-.003H57.406c-.909 0-1.707.156-2.156.748-.443.586-.397 1.407-.177 2.31.775 3.201 3.817 5.771 7.17 5.788zM43.498 90.16h.5v-.036l.45.008c.744.016 1.52.033 2.273-.03 1.548-.13 3.111-.678 3.81-2.465.727-1.856-.149-3.338-1.19-4.504-2.153-2.407-4.888-3.818-8.029-4.331-1.44-.236-2.731-.074-3.778.475-1.051.552-1.814 1.475-2.22 2.677-1.288 3.812 1.542 8.01 5.562 8.202h.003c.6.027 1.212.019 1.806.011.276-.004.548-.007.813-.007zm65.08.084.479.033.012-.114h.254c.472.002.947.002 1.42 0 1.596-.008 3.002-.478 4.102-1.357 1.1-.879 1.864-2.144 2.215-3.693.687-3.023-1.048-6.151-4.097-6.308-4.536-.233-8.231 1.674-10.828 5.36-.837 1.187-.955 2.514-.458 3.621.495 1.101 1.567 1.918 2.981 2.161.909.159 1.86.2 2.771.238.393.017.778.034 1.149.06zM54.143 113.836c5.433-.04 10.867-.035 16.299-.029 1.879.002 3.758.004 5.637.004 1.896 0 3.793-.002 5.69-.004 5.453-.005 10.907-.01 16.361.026.541.002.883-.118 1.109-.296.226-.178.401-.465.51-.922l.001-.001.001-.005c.085-.361.169-.722.207-1.067.04-.351.024-.632-.054-.841-.867-2.299-1.765-4.582-2.907-6.708l-42.854 9.843zm0 0c-.572.004-.947-.109-1.19-.289-.231-.171-.409-.451-.488-.933m1.678 1.222-1.678-1.222m2.593-8.443c.937-1.645 2.45-2.417 4.484-2.411 11.045.041 22.09.038 33.136.003 1.954-.006 3.474.66 4.319 2.23l-41.94.178zm0 0a37.643 37.643 0 0 0-2.654 5.8m2.654-5.8-2.654 5.8m.061 2.643-.004-.022m.004.022-.004-.022m0 0c-.078-.474-.157-.949-.183-1.408m.184 1.408-.184-1.408m0 0c-.026-.467.006-.877.127-1.213m-.127 1.213.127-1.213" stroke="#fff"/>
    <path fill-rule="evenodd" clip-rule="evenodd" d="M140.231 33.872h-29.376v14.687h3.746l-.903 5.875 8.122-5.875h18.411V33.872z" fill="#CAFF86" fill-opacity=".2"/>
    <path d="M110.855 33.872v-.5h-.5v.5h.5zm29.376 0h.5v-.5h-.5v.5zm-29.376 14.687h-.5v.5h.5v-.5zm3.746 0 .494.076.088-.576h-.582v.5zm-.903 5.875-.494-.076-.181 1.182.968-.7-.293-.406zm8.122-5.875v-.5h-.162l-.131.095.293.405zm18.411 0v.5h.5v-.5h-.5zm-29.376-14.187h29.376v-1h-29.376v1zm.5 14.187V33.872h-1v14.687h1zm3.246-.5h-3.746v1h3.746v-1zm-.409 6.451.903-5.875-.989-.152-.902 5.875.988.152zm7.335-6.356-8.122 5.875.586.81 8.122-5.875-.586-.81zm18.704-.095H121.82v1h18.411v-1zm-.5-14.187v14.687h1V33.872h-1z" fill="#CAFF86"/>
    <path fill-rule="evenodd" clip-rule="evenodd" d="M38.396 32.893H10V47.58h17.797l7.851 5.875-.872-5.875h3.62V32.893z" fill="#CAFF86" fill-opacity=".2"/>
    <path d="M10 32.893v-.5h-.5v.5h.5zm28.396 0h.5v-.5h-.5v.5zM10 47.58h-.5v.5h.5v-.5zm17.797 0 .3-.4-.134-.1h-.166v.5zm7.851 5.875-.3.4.973.728-.178-1.201-.495.073zm-.872-5.875v-.5h-.58l.085.574.495-.074zm3.62 0v.5h.5v-.5h-.5zM10 33.393h28.396v-1H10v1zm.5 14.187V32.893h-1V47.58h1zm17.297-.5H10v1h17.797v-1zm-.3.9 7.852 5.876.599-.801-7.852-5.875-.599.8zm8.646 5.402-.873-5.875-.989.147.873 5.875.989-.147zm2.253-6.302h-3.62v1h3.62v-1zm-.5-14.187V47.58h1V32.893h-1z" fill="#CAFF86"/>
    <path fill-rule="evenodd" clip-rule="evenodd" d="M90.293 14.288H58.959v14.688h12.869l2.798 4.896 2.798-4.896h12.869V14.288z" fill="#CAFF86" fill-opacity=".2"/>
    <path d="M58.959 14.288v-.5h-.5v.5h.5zm31.334 0h.5v-.5h-.5v.5zM58.959 28.976h-.5v.5h.5v-.5zm12.869 0 .434-.248-.144-.252h-.29v.5zm2.798 4.896-.434.248.434.76.434-.76-.434-.248zm2.798-4.896v-.5h-.29l-.144.252.434.248zm12.869 0v.5h.5v-.5h-.5zM58.959 14.788h31.334v-1H58.959v1zm.5 14.188V14.288h-1v14.688h1zm12.369-.5H58.959v1h12.869v-1zm3.232 5.148-2.798-4.896-.868.496 2.798 4.896.868-.496zm1.93-4.896-2.798 4.896.868.496 2.798-4.896-.868-.496zm13.303-.252h-12.87v1h12.87v-1zm-.5-14.188v14.688h1V14.288h-1z" fill="#CAFF86"/>
    <g filter="url(#w20p3emw7a)">
        <circle cx="43.5" cy="84.5" r="3.5" fill="#CAFF86"/>
    </g>
    <g filter="url(#s34n8m33ab)">
        <circle cx="108.5" cy="84.5" r="3.5" fill="#CAFF86"/>
    </g>
    <defs>
        <filter id="w20p3emw7a" x="25" y="66" width="37" height="37" filterUnits="userSpaceOnUse" color-interpolation-filters="sRGB">
            <feFlood flood-opacity="0" result="BackgroundImageFix"/>
            <feColorMatrix in="SourceAlpha" values="0 0 0 0 0 0 0 0 0 0 0 0 0 0 0 0 0 0 127 0" result="hardAlpha"/>
            <feMorphology radius="4" operator="dilate" in="SourceAlpha" result="effect1_dropShadow_616_7200"/>
            <feOffset/>
            <feGaussianBlur stdDeviation="5.5"/>
            <feComposite in2="hardAlpha" operator="out"/>
            <feColorMatrix values="0 0 0 0 0.792157 0 0 0 0 1 0 0 0 0 0.52549 0 0 0 0.4 0"/>
            <feBlend in2="BackgroundImageFix" result="effect1_dropShadow_616_7200"/>
            <feBlend in="SourceGraphic" in2="effect1_dropShadow_616_7200" result="shape"/>
        </filter>
        <filter id="s34n8m33ab" x="90" y="66" width="37" height="37" filterUnits="userSpaceOnUse" color-interpolation-filters="sRGB">
            <feFlood flood-opacity="0" result="BackgroundImageFix"/>
            <feColorMatrix in="SourceAlpha" values="0 0 0 0 0 0 0 0 0 0 0 0 0 0 0 0 0 0 127 0" result="hardAlpha"/>
            <feMorphology radius="4" operator="dilate" in="SourceAlpha" result="effect1_dropShadow_616_7200"/>
            <feOffset/>
            <feGaussianBlur stdDeviation="5.5"/>
            <feComposite in2="hardAlpha" operator="out"/>
            <feColorMatrix values="0 0 0 0 0.792157 0 0 0 0 1 0 0 0 0 0.52549 0 0 0 0.4 0"/>
            <feBlend in2="BackgroundImageFix" result="effect1_dropShadow_616_7200"/>
            <feBlend in="SourceGraphic" in2="effect1_dropShadow_616_7200" result="shape"/>
        </filter>
    </defs>
</svg>
