<svg width="150" height="130" viewBox="0 0 150 130" fill="none" xmlns="http://www.w3.org/2000/svg">
    <path d="M68.49 97.777c2.037-1.866 3.963-3.857 5.874-5.832l.534-.553c3.806-3.931 4.914-9.805 2.664-14.805-2.394-5.32-6.7-7.95-12.02-8.246h-.019L46.186 89.45l-.496.066c.72 5.484 3.764 9.328 8.952 11.171 5.114 1.817 9.854.751 13.848-2.911zm0 0-.337-.369.338.369zm12.337-49.381.009.008A2380.285 2380.285 0 0 1 98.65 66.22c2.374 2.4 4.084 4.17 5.244 5.563 1.17 1.404 1.72 2.356 1.866 3.116.135.704-.067 1.316-.661 2.102-.488.646-1.194 1.349-2.108 2.26-.237.236-.488.486-.753.753l.354.352-.354-.352C93.007 89.31 80.846 101.446 71 111.272l-3.159 3.153c-.543.542-1.05 1.052-1.527 1.531-1.682 1.69-2.971 2.985-4.05 3.911-1.393 1.197-2.32 1.671-3.166 1.659-.849-.012-1.767-.513-3.138-1.72-.957-.843-2.076-1.972-3.495-3.404a398.93 398.93 0 0 0-1.974-1.983 9615.878 9615.878 0 0 1-17.84-17.836 98.493 98.493 0 0 0-2.482-2.744l-.353-.378c-.608-.65-1.147-1.229-1.617-1.765-1.129-1.288-1.766-2.244-1.923-3.2-.152-.926.13-1.963 1.146-3.449 1.017-1.49 2.72-3.355 5.278-5.915l7.654-7.66c8.703-8.711 18.391-18.409 26.242-26.222 1.513-1.506 2.662-2.542 3.66-3.146.977-.59 1.766-.741 2.591-.534.865.218 1.84.845 3.134 1.992 1.288 1.141 2.833 2.741 4.846 4.834z" stroke="#fff"/>
    <path d="M125.589 18.58c-.861-.004-1.727 0-2.596.006-1.651.009-3.311.018-4.963-.03l7.559.023zm0 0c1.689.006 2.877 1.198 2.884 2.91.002.624.008 1.246.013 1.867.018 2.059.035 4.101-.055 6.144m-2.842-10.922 2.842 10.922m-.464 2.36c.539-.593.927-1.536.964-2.338.09-2.057.073-4.118.055-6.18-.006-.618-.011-1.236-.013-1.855l-1.006 10.372zm0 0c-1.711 1.883-3.489 3.728-5.409 5.391l5.409-5.392zm.464-2.36c-.031.686-.374 1.518-.834 2.022v.001c-1.705 1.877-3.468 3.705-5.367 5.35-.736.637-1.838.976-2.962 1.285-.558.154-1.078.366-1.473.744-.411.392-.637.913-.704 1.582-.148 1.487-.838 2.699-2.027 3.653h-.001a7.036 7.036 0 0 0-1.044 1.045c-1.401 1.738-3.144 2.839-5.339 3.187h-.001c-.364.058-.702.192-.961.458-.26.266-.388.611-.434.99v.001c-.231 1.962-1.176 3.498-2.703 4.832l.329.377m23.521-25.527-27.62 28.887.353.354c.285-.29.57-.587.857-.885.922-.957 1.866-1.937 2.889-2.829m0 0c1.6-1.399 2.622-3.041 2.871-5.15l-2.871 5.15z" fill="#CAFF86" fill-opacity=".2" stroke="#CAFF86"/>
    <path d="M57.481 94.428c-2.753-.716-4.45-2.548-4.968-5.355-.48-2.6.43-4.708 2.312-6.425l4.792 4.795 4.788 4.79c-.905.967-1.889 1.666-2.954 2.061-1.183.44-2.498.517-3.97.134zM71.595 80.253c.382 1.474.317 2.794-.109 3.98-.382 1.065-1.065 2.047-2.02 2.947l-4.798-4.8-.011-.012-4.776-4.778c1.683-1.886 3.841-2.723 6.424-2.252 2.754.502 4.582 2.181 5.29 4.915z" stroke="#fff"/>
    <g filter="url(#ez3yr3l1ia)">
        <circle cx="89" cy="75" r="4" fill="#CAFF86"/>
    </g>
    <defs>
        <filter id="ez3yr3l1ia" x="78" y="64" width="22" height="22" filterUnits="userSpaceOnUse" color-interpolation-filters="sRGB">
            <feFlood flood-opacity="0" result="BackgroundImageFix"/>
            <feColorMatrix in="SourceAlpha" values="0 0 0 0 0 0 0 0 0 0 0 0 0 0 0 0 0 0 127 0" result="hardAlpha"/>
            <feMorphology radius="2" operator="dilate" in="SourceAlpha" result="effect1_dropShadow_616_7265"/>
            <feOffset/>
            <feGaussianBlur stdDeviation="2.5"/>
            <feComposite in2="hardAlpha" operator="out"/>
            <feColorMatrix values="0 0 0 0 0.792157 0 0 0 0 1 0 0 0 0 0.52549 0 0 0 0.4 0"/>
            <feBlend in2="BackgroundImageFix" result="effect1_dropShadow_616_7265"/>
            <feBlend in="SourceGraphic" in2="effect1_dropShadow_616_7265" result="shape"/>
        </filter>
    </defs>
</svg>
