<svg width="20" height="20" viewBox="0 0 20 20" fill="none" xmlns="http://www.w3.org/2000/svg">
    <path d="M12.33 10.002a2.329 2.329 0 1 1-4.659 0 2.329 2.329 0 0 1 4.658 0z" stroke="#989898" stroke-width="1.5"/>
    <path d="M.885 9.627C3.205 6.823 6.597 4.286 10 4.286c3.403 0 6.794 2.535 9.115 5.34a.59.59 0 0 1 0 .75c-.573.693-1.774 2.029-3.37 3.19-2.01 1.463-3.903 2.149-5.748 2.148-1.845 0-3.737-.688-5.742-2.148-1.596-1.161-2.797-2.497-3.37-3.19a.589.589 0 0 1 0-.749z" stroke="#989898" stroke-width="1.5"/>
</svg>
