<svg width="150" height="130" viewBox="0 0 150 130" fill="none" xmlns="http://www.w3.org/2000/svg">
    <path fill-rule="evenodd" clip-rule="evenodd" d="M22.974 48.513h104.052a1 1 0 0 1 1 1v8.554c.318-.044.643-.067.974-.067h.026v-8.487a2 2 0 0 0-2-2H22.974a2 2 0 0 0-2 2v54.007a2 2 0 0 0 2 2h104.052a2 2 0 0 0 2-2V72H129c-.331 0-.656-.023-.974-.067v31.587a1 1 0 0 1-1 1H22.974a1 1 0 0 1-1-1V49.513a1 1 0 0 1 1-1z" fill="#fff"/>
    <rect x="27.788" y="55.068" width="95.124" height="42.897" rx="1.5" stroke="#fff"/>
    <path stroke="#fff" stroke-width="3" stroke-linecap="square" d="M76.5 25.98v9.796"/>
    <path transform="matrix(-.5051 .86306 -.83957 -.54326 97.715 25.334)" stroke="#fff" stroke-width="3" stroke-linecap="square" d="M1.5-1.5h9.627"/>
    <path transform="matrix(.52966 .84821 -.82292 .56815 52.285 27.04)" stroke="#fff" stroke-width="3" stroke-linecap="square" d="M1.5-1.5h9.61"/>
    <g filter="url(#2nwblbd6pa)">
        <circle cx="129" cy="64.5" r="3.5" fill="#CAFF86"/>
    </g>
    <path d="M43.5 86.599v.5h13.774V82.69h-3.99V64.872h-3.775l-.123.079c-1.282.816-2.682 1.342-4.761 1.735l-.407.077V70.284h3.846V82.69H43.5V86.6zm23.517.901c2.336 0 4.284-1.03 5.629-3.024 1.328-1.972 2.047-4.855 2.047-8.562 0-3.706-.719-6.55-2.05-8.48-1.349-1.955-3.3-2.934-5.626-2.934-2.325 0-4.282.97-5.638 2.922-1.34 1.927-2.066 4.771-2.066 8.492 0 3.708.726 6.591 2.063 8.563 1.351 1.994 3.307 3.023 5.641 3.023zm0-4.294c-.371 0-.7-.091-.995-.293-.298-.203-.59-.541-.85-1.084-.525-1.1-.87-2.957-.87-5.915 0-2.944.345-4.762.868-5.828.257-.524.548-.847.844-1.04.294-.193.625-.28 1.003-.28.378 0 .708.087.998.278.293.194.58.516.834 1.04.517 1.066.855 2.885.855 5.83 0 2.959-.338 4.816-.857 5.917-.256.543-.545.88-.84 1.083-.291.2-.618.292-.99.292zM83.921 87.5c2.335 0 4.283-1.03 5.628-3.024 1.328-1.972 2.048-4.855 2.048-8.562 0-3.706-.72-6.55-2.051-8.48-1.349-1.955-3.299-2.934-5.625-2.934-2.325 0-4.283.97-5.639 2.922-1.34 1.927-2.066 4.771-2.066 8.492 0 3.708.727 6.591 2.063 8.563C79.63 86.47 81.586 87.5 83.92 87.5zm0-4.294c-.372 0-.701-.091-.996-.293-.297-.203-.59-.541-.85-1.084-.525-1.1-.87-2.957-.87-5.915 0-2.944.346-4.762.868-5.828.257-.524.548-.847.844-1.04.294-.193.626-.28 1.004-.28.377 0 .707.087.997.278.293.194.58.516.835 1.04.516 1.066.854 2.885.854 5.83 0 2.959-.338 4.816-.857 5.917-.255.543-.545.88-.84 1.083-.291.2-.618.292-.99.292zm16.903 4.294c2.335 0 4.284-1.03 5.628-3.024 1.329-1.972 2.048-4.855 2.048-8.562 0-3.706-.719-6.55-2.051-8.48-1.348-1.955-3.299-2.934-5.625-2.934-2.325 0-4.282.97-5.639 2.922-1.34 1.927-2.066 4.771-2.066 8.492 0 3.708.727 6.591 2.063 8.563 1.352 1.994 3.307 3.023 5.642 3.023zm0-4.294c-.372 0-.701-.091-.995-.293-.298-.203-.591-.541-.85-1.084-.525-1.1-.87-2.957-.87-5.915 0-2.944.345-4.762.867-5.828.258-.524.548-.847.844-1.04.294-.193.626-.28 1.004-.28s.707.087.997.278c.293.194.581.516.835 1.04.516 1.066.854 2.885.854 5.83 0 2.959-.338 4.816-.856 5.917-.256.543-.546.88-.841 1.083a1.69 1.69 0 0 1-.989.292z" fill="#CAFF86" fill-opacity=".2" stroke="#CAFF86"/>
    <defs>
        <filter id="2nwblbd6pa" x="110.5" y="46" width="37" height="37" filterUnits="userSpaceOnUse" color-interpolation-filters="sRGB">
            <feFlood flood-opacity="0" result="BackgroundImageFix"/>
            <feColorMatrix in="SourceAlpha" values="0 0 0 0 0 0 0 0 0 0 0 0 0 0 0 0 0 0 127 0" result="hardAlpha"/>
            <feMorphology radius="4" operator="dilate" in="SourceAlpha" result="effect1_dropShadow_319_711"/>
            <feOffset/>
            <feGaussianBlur stdDeviation="5.5"/>
            <feComposite in2="hardAlpha" operator="out"/>
            <feColorMatrix values="0 0 0 0 0.792157 0 0 0 0 1 0 0 0 0 0.52549 0 0 0 0.4 0"/>
            <feBlend in2="BackgroundImageFix" result="effect1_dropShadow_319_711"/>
            <feBlend in="SourceGraphic" in2="effect1_dropShadow_319_711" result="shape"/>
        </filter>
    </defs>
</svg>
