<svg width="40" height="40" viewBox="0 0 40 40" fill="none" xmlns="http://www.w3.org/2000/svg">
    <circle cx="20" cy="20" r="20" fill="#CAFF86"/>
    <g clip-path="url(#2qhe2xa85a)">
        <path d="M20.52 8c.28.073.566.13.84.222a4.23 4.23 0 0 1 2.904 3.998c.002.245 0 .49 0 .762H27.436c.526.001.76.19.823.714.095.779.166 1.56.248 2.34.098.93.198 1.859.297 2.788l.29 2.765.295 2.787.291 2.764c.1.937.2 1.873.297 2.81.015.14.026.283.02.425a.662.662 0 0 1-.609.614c-.075.006-.15.002-.226.002-6.109 0-12.217-.004-18.326.009-.483 0-.903-.265-.828-.925.192-1.7.362-3.403.543-5.105.174-1.634.353-3.269.527-4.903.143-1.353.278-2.707.42-4.06.084-.795.17-1.59.262-2.384.048-.41.307-.638.727-.64.994-.003 1.986 0 2.98 0h.272c0-.279-.003-.538 0-.797A4.257 4.257 0 0 1 18.698 8.2c.27-.084.551-.134.827-.2h.995zm6.419 6.377h-2.675c0 .496.003.974 0 1.452-.004.41-.292.708-.682.713-.388.005-.691-.289-.707-.692-.006-.164-.001-.33-.001-.494v-.98H17.13c0 .502.005.987-.001 1.472a.681.681 0 0 1-.612.689.685.685 0 0 1-.761-.55c-.02-.094-.016-.194-.016-.29-.002-.44 0-.88 0-1.323H13.07L11.461 29.6h17.084l-1.607-15.222zm-9.789-1.41h5.743c-.022-.426.002-.843-.073-1.242-.213-1.136-.9-1.904-2.007-2.227-1.107-.324-2.096-.044-2.905.787-.73.75-.854 1.68-.758 2.682z" fill="#000"/>
    </g>
    <defs>
        <clipPath id="2qhe2xa85a">
            <path fill="#fff" transform="translate(10 8)" d="M0 0h20v23H0z"/>
        </clipPath>
    </defs>
</svg>
