<svg width="296" height="639" viewBox="0 0 296 639" fill="none" xmlns="http://www.w3.org/2000/svg">
    <g clip-path="url(#ljrjsx3gna)" fill="#E6E6E6" fill-opacity=".2">
        <path d="M256.372 225.822c-1.485-1.077-3.756-3.057-6.638-5.59-11.065-9.667-29.612-25.826-42.685-25.826-5.125 0-8.939 2.475-11.356 7.367-3.028 6.114 3.64 20.322 8.065 29.727 1.078 2.3 2.009 4.28 2.592 5.706 1.194 2.941 2.3 5.62 3.203 8.036 6.172 16.188 12.578 32.901 17.324 51.069.495 1.892.961 4.047 1.485 6.318 2.184 9.695 4.863 21.72 11.559 27.631 2.592 2.3 5.125 3.814 7.512 4.542 1.107.32 2.184.495 3.261.495 7.92 0 13.365-8.997 18.635-17.703 1.194-1.979 2.446-4.047 3.669-5.91l1.165-1.776c20.061-30.542 32.173-49.002-4.717-74.594-3.582-2.533-8.211-5.94-13.074-9.492zm16.597 83.241-1.165 1.777a171.788 171.788 0 0 0-3.698 5.968c-5.066 8.356-10.278 17.004-17.382 17.004a9.67 9.67 0 0 1-2.825-.437c-2.183-.641-4.542-2.067-6.988-4.222-6.347-5.59-8.997-17.382-11.122-26.873-.524-2.301-.99-4.455-1.485-6.348-4.775-18.226-11.181-34.997-17.383-51.214a333.766 333.766 0 0 0-3.232-8.065c-.611-1.456-1.543-3.465-2.62-5.794-4.048-8.589-10.803-22.972-8.066-28.446 2.184-4.396 5.474-6.551 10.046-6.551 12.52 0 30.805 15.955 41.724 25.476 2.911 2.533 5.212 4.542 6.755 5.678 4.862 3.552 9.521 6.958 13.131 9.462 35.697 24.778 23.876 42.771 4.31 72.585z"/>
        <path d="M280.219 193.153c-6.435-4.687-12.841-9.928-19.625-15.46-20.76-16.945-44.257-36.162-65.396-36.162-4.164 0-8.123.728-12.112 2.242-37.328 14.121-31.971 53.573-25.478 75.846 3.989 13.597 9.114 27.078 14.093 40.092 5.794 15.17 11.792 30.863 15.956 46.847 2.533 9.638 3.785 19.799 5.008 29.611 3.756 30.135 7.308 58.581 47.489 58.581 3.174 0 6.61-.175 10.191-.524 4.571-.466 8.327-1.165 11.53-2.184 10.686-3.436 13.889-9.929 18.722-19.741 1.456-2.969 3.116-6.318 5.183-9.957 3.145-5.561 6.58-10.831 10.162-15.897v-1.514c-3.844 5.415-7.541 11.035-10.919 16.974-2.067 3.64-3.727 7.017-5.212 9.987-4.746 9.608-7.861 15.955-18.198 19.274-3.144 1.019-6.842 1.718-11.355 2.155-3.553.349-6.959.524-10.104.524-39.424 0-42.743-26.786-46.616-57.824-1.222-9.841-2.504-20.031-5.037-29.727-4.193-16.042-10.191-31.736-16.014-46.934-4.979-13.015-10.103-26.437-14.063-40.005-6.435-21.982-11.734-60.939 24.924-74.798 3.872-1.456 7.745-2.183 11.792-2.183 20.818 0 44.199 19.099 64.843 35.957 6.784 5.561 13.219 10.802 19.653 15.49 4.863 3.552 9.143 6.667 12.346 8.88l3.931 2.708v-1.019c-1.136-.786-2.301-1.572-3.436-2.359-3.116-2.241-7.396-5.357-12.258-8.88z"/>
        <path d="M280.918 218.774c-3.378-2.358-7.949-5.677-12.724-9.142-6.843-5.008-13.452-10.394-20.499-16.13-1.572-1.281-3.319-2.766-5.153-4.309-11.734-9.958-27.807-23.584-42.598-23.584-4.076 0-7.861 1.049-11.239 3.145-25.564 15.81-10.191 53.543-1.019 76.079 1.106 2.737 2.184 5.328 3.057 7.628 5.998 15.664 12.2 31.882 16.655 48.973.844 3.202 1.689 6.987 2.562 10.976 4.077 18.285 9.638 43.353 23.643 52.379 2.3 1.485 4.746 2.417 7.221 2.766.728.117 1.514.146 2.271.146 17.121 0 34.183-26 46.674-45.013 2.271-3.436 4.309-6.551 6.202-9.259v-1.514c-2.067 2.941-4.368 6.406-6.93 10.307-12.345 18.838-29.291 44.605-45.946 44.605a17.93 17.93 0 0 1-2.155-.145c-2.358-.321-4.658-1.223-6.871-2.621-13.714-8.822-19.246-33.686-23.264-51.825-.903-3.989-1.718-7.774-2.563-11.006-4.484-17.12-10.685-33.367-16.683-49.06a278.82 278.82 0 0 0-3.058-7.628c-9.084-22.303-24.254-59.6.67-75.002 3.261-2.009 6.871-3.028 10.773-3.028 14.471 0 30.398 13.51 42.015 23.38a327.98 327.98 0 0 0 5.212 4.367c7.017 5.707 13.627 11.122 20.498 16.13 4.776 3.494 9.347 6.813 12.724 9.172 4.543 3.144 9.143 6.259 14.035 9.579.524.349 1.019.669 1.514 1.019v-1.049c-.35-.232-.699-.465-1.078-.727-4.804-3.378-9.404-6.464-13.946-9.609z"/>
        <path d="M129.569 425.377c1.66 2.155 4.746 5.095 12.52 5.736 29.088 2.387 73.083 5.969 110.207 39.801l.437.378c12.694 11.588 23.002 26.263 30.63 43.616 2.126 4.775 5.532 7.541 9.405 7.541a8.49 8.49 0 0 0 3.203-.641v-1.048c-1.048.495-2.126.815-3.203.815-3.494 0-6.639-2.562-8.619-7.017-7.686-17.469-18.081-32.231-30.863-43.906l-.437-.379c-37.357-34.036-81.527-37.646-110.731-40.034-7.424-.611-10.365-3.377-11.908-5.386-3.698-4.833-4.164-12.316-3.756-14.616 4.047-17.819 9.084-40.005 7.191-64.258-3.173-41.082-19.624-76.399-35.493-110.552-12.753-27.398-27.195-58.464-22.187-72.614 8.94-25.185 45.451-61.318 60.708-75.672 9.696-9.113 21.256-13.742 34.3-13.742 7.454 0 13.889 1.572 17.994 2.882 26.787 8.647 64.697 28.417 106.975 55.582v-1.048c-42.103-27.049-79.896-46.76-106.655-55.378-4.134-1.34-10.686-2.94-18.256-2.94-13.277 0-25.011 4.716-34.882 14.004-15.315 14.412-51.944 50.661-60.94 76.021-5.125 14.499 9.404 45.711 22.215 73.283 15.84 34.066 32.232 69.296 35.435 110.232 1.893 24.137-3.144 46.236-7.162 64.054-.495 2.417 0 10.249 3.872 15.286z"/>
        <path d="M184.396 398.999c6.638 3.639 15.723 5.182 24.516 6.667 6.522 1.106 13.248 2.242 18.722 4.222 3.465 1.252 7.279 3.144 11.327 5.124 8.356 4.105 17.819 8.793 26.437 8.793 1.66 0 3.262-.175 4.776-.524.407-.087.786-.204 1.193-.32 12.346-3.669 18.926-19.158 24.604-33.367v-2.358c-.029.087-.058.175-.117.262-5.765 14.499-12.287 30.921-24.749 34.647-.378.117-.757.204-1.135.292-1.427.32-2.97.495-4.572.495-8.414 0-17.79-4.63-26.059-8.706-4.076-2.009-7.92-3.901-11.414-5.153-5.561-2.009-12.345-3.145-18.896-4.28-8.735-1.485-17.762-3.028-24.255-6.581-14.383-7.89-12.869-22.331-11.297-37.617.612-5.969 1.252-12.17.815-17.819-3.756-48.448-21.75-87.143-39.161-124.527-7.891-16.974-8.473-35.608-1.631-52.408 7.425-18.197 22.973-32.901 42.656-40.325a53.36 53.36 0 0 1 19.013-3.494c28.098 0 54.477 21.545 77.742 40.558 6.58 5.386 12.811 10.452 18.78 14.82 1.543 1.135 2.941 2.154 4.251 3.115v-1.077c-1.165-.844-2.417-1.747-3.756-2.737-5.94-4.338-12.171-9.404-18.751-14.791-23.323-19.129-49.819-40.762-78.237-40.762-6.58 0-13.073 1.194-19.304 3.553-19.916 7.511-35.639 22.389-43.151 40.82-6.959 17.032-6.347 35.899 1.66 53.106 17.382 37.356 35.347 75.963 39.074 124.237.437 5.561-.204 11.733-.815 17.673-1.572 14.907-3.145 30.309 11.734 38.462z"/>
        <path d="M165.528 414.692a858.47 858.47 0 0 0 17.412 4.134c30.456 7.046 56.719 13.16 83.012 36.948l.524.466c6.056 5.474 10.802 8.123 14.587 8.123.583 0 1.165-.058 1.718-.204 5.707-1.31 8.56-9.288 11.676-19.565.495-1.602 1.019-3.174 1.514-4.746v-2.854a361.061 361.061 0 0 0-2.358 7.367c-3.058 10.015-5.795 17.76-11.036 18.983-3.785.873-8.764-1.63-15.519-7.745l-.524-.466c-26.467-23.962-52.847-30.076-83.419-37.151-5.62-1.31-11.443-2.65-17.383-4.135C144.39 408.49 148 388.4 151.494 369.009c1.514-8.472 3.116-17.265 2.533-24.602-3.465-44.751-20.673-81.757-37.327-117.569-1.98-4.28-4.135-8.443-6.173-12.491-10.686-20.992-19.945-39.102-6.726-61.404 9.929-16.771 24.837-30.513 39.22-43.79 2.592-2.388 5.183-4.775 7.716-7.163 5.561-5.211 13.132-7.86 22.478-7.86 35.872 0 91.048 38.17 122.785 61.171v-1.077c-31.912-23.118-86.855-60.997-122.785-60.997-9.579 0-17.353 2.736-23.089 8.094a936.283 936.283 0 0 1-7.716 7.162c-14.442 13.335-29.379 27.107-39.395 43.994-13.452 22.71-3.669 41.926 6.697 62.249 2.067 4.047 4.193 8.211 6.172 12.491 16.597 35.724 33.805 72.643 37.241 117.248.553 7.221-1.019 15.955-2.533 24.37-3.524 19.798-7.192 40.296 14.936 45.857z"/>
        <path d="M256.518 635.273c3.756 2.388 9.812 3.698 17.121 3.698 6.493 0 14.179-1.077 22.361-3.581v-2.126c-8.182 2.562-15.868 3.669-22.361 3.669-6.814 0-12.637-1.223-16.015-3.378-17.12-10.918-24.661-30.222-32.669-50.632-6.9-17.615-14.063-35.841-27.922-48.681l-.03-.611-.611.029c-15.956-14.063-37.415-20.905-65.658-20.905-27.544 0-56.516 6.609-79.78 11.908-15.897 3.639-29.64 6.755-38.492 6.755-5.183 0-8.356-1.077-9.667-3.261-1.747-2.912-.436-8.415 3.873-16.276 20.12-36.744 60.766-124.323 57.942-160.572-2.213-28.592-15.956-58.144-29.262-86.706-19.217-41.315-39.133-84.086-24.633-124.935C27.253 93.053 100.074 9.725 151.873 2.65c3.028-.408 6.289-.612 9.695-.612 33.718 0 83.012 20.09 134.403 49.176v-2.183C244.58 20.002 195.315 0 161.568 0c-3.494 0-6.842.204-9.957.64C99.142 7.804 25.477 91.919 8.793 138.97c-14.762 41.635 5.329 84.784 24.72 126.536 13.22 28.388 26.875 57.765 29.059 86.008 2.504 32.318-32.931 114.22-57.68 159.437-4.805 8.793-6.057 14.616-3.844 18.313 1.69 2.883 5.445 4.251 11.414 4.251 9.085 0 22.915-3.144 38.929-6.813 23.177-5.299 52.032-11.879 79.343-11.879 27.894 0 49.032 6.755 64.61 20.643 13.714 12.549 20.818 30.688 27.719 48.215 8.123 20.731 15.781 40.325 33.455 51.593z"/>
        <path d="M59.69 487.074c2.067 2.999 7.162 4.28 16.974 4.28 6.144 0 13.452-.495 21.925-1.048 10.482-.699 22.391-1.485 34.678-1.485 38.929 0 65.192 8.269 82.692 26.088 16.276 12.52 25.244 32.93 33.163 50.952 9.638 21.895 17.936 40.791 36.309 40.791 1.951 0 4.018-.233 6.114-.67a52.108 52.108 0 0 0 4.426-1.135v-1.514c-1.63.524-3.232.932-4.717 1.252-2.009.407-3.989.64-5.823.64-17.412 0-25.535-18.488-34.969-39.917-8.007-18.168-17.063-38.753-33.543-51.447-17.732-18.052-44.315-26.466-83.652-26.466-12.345 0-24.254.786-34.794 1.484-8.444.554-15.752 1.049-21.838 1.049-9.026 0-14.034-1.165-15.752-3.64-.932-1.368-.96-3.203-.058-5.648 18.518-49.526 34.037-112.212 32.523-131.515-2.62-33.804-17.47-65.743-31.853-96.635-17.587-37.763-34.183-73.43-23.643-103.186C52.527 107.96 119.495 36.19 155.745 31.24c1.747-.232 3.698-.349 5.794-.349 28.244 0 78.004 20.236 134.403 53.66v-1.689C239.66 49.525 189.928 29.406 161.569 29.406c-2.184 0-4.193.117-5.998.379-36.658 5.008-104.296 77.36-119.088 119.024-10.744 30.31 5.97 66.238 23.672 104.292 14.326 30.776 29.117 62.57 31.737 96.111 1.31 16.916-12.578 77.768-32.435 130.875-1.078 2.94-1.02 5.211.232 6.987z"/>
        <path d="M103.655 449.166c5.416 7.774 16.859 8.647 32.669 9.87 1.718.116 3.494.262 5.299.407 5.009.408 10.25.583 15.782.787 25.739.873 54.914 1.892 81.264 25.883l.321.291c14.616 12.782 23.293 35.318 30.98 55.204 7.716 20.031 14.412 37.326 25.011 37.326.32 0 .67-.058.99-.117v-.873c-.32.029-.67.116-.99.116-10.016 0-16.567-17.032-24.196-36.773-7.716-19.973-16.451-42.625-31.213-55.552l-.32-.291c-26.584-24.195-55.933-25.214-81.818-26.088-5.532-.204-10.773-.378-15.752-.786-1.806-.146-3.582-.291-5.3-.408-15.577-1.193-26.845-2.067-32.028-9.491-4.891-7.046-4.222-20.265 2.242-42.8 5.969-20.876 8.211-39.947 6.784-58.29-2.911-37.413-18.547-71.013-33.658-103.535-15.782-33.949-30.719-66.005-22.915-88.016C69.793 119.373 132.51 54.678 158.482 51.155c.582-.087 1.572-.174 3.086-.174 21.692 0 70.783 18.051 134.403 57.037v-1.019c-63.562-38.927-112.652-56.92-134.403-56.92-1.543 0-2.591.087-3.202.174-26.176 3.581-89.33 68.625-102.375 105.457-7.92 22.36 7.076 54.562 22.944 88.686 15.083 32.434 30.689 65.946 33.572 103.214 1.427 18.256-.786 37.239-6.755 57.999-6.61 23.117-7.25 36.161-2.097 43.557z"/>
    </g>
    <defs>
        <clipPath id="ljrjsx3gna">
            <path fill="#fff" d="M0 0h296v639H0z"/>
        </clipPath>
    </defs>
</svg>
