<svg width="551" height="154" viewBox="0 0 551 154" fill="none" xmlns="http://www.w3.org/2000/svg">
    <path d="M.5 150.229v.5h28.754V91.448c0-13.271-1.355-27.53-2.608-40.711-.32-3.366-.633-6.66-.915-9.852h.129l14.733 31.183.005.012.007.012 42.423 78.375.142.262h30.534V3.073H84.95v59.083c0 13.066 1.467 27.843 2.768 40.952.338 3.401.664 6.691.951 9.809h-.124L74.01 81.54l-.007-.015-.008-.014L31.373 3.334l-.142-.261H.5v147.156zm148.487 0v.5h93.181v-25.541h-62.842V87h51.543V61.458h-51.543V28.615h60.662V3.073h-91.001v147.156zm135.85.094.077.406H321.61l.087-.392L337.755 77.9l.001-.007c2.34-11.293 4.297-22.393 6.246-33.482 1.768 11.098 3.917 22.197 6.255 33.482l.002.01 16.454 72.437.089.389h37.291l.076-.409L431.328 3.664l.109-.591h-28.78l-.068.42-11.696 71.645-.002.01a8987.039 8987.039 0 0 0-6.483 46.279h-.145a4085.613 4085.613 0 0 1-3.28-16.627c-1.974-10.08-3.926-20.046-5.958-29.684l-.003-.012-16.85-71.646-.091-.385h-25.967l-.092.384-17.048 71.646-.002.007-.001.007c-3.134 15.053-6.267 30.495-9.21 46.133-1.204-8.72-2.468-17.328-3.725-25.881-.993-6.765-1.981-13.496-2.931-20.22l-.002-.01-11.696-71.647-.068-.42h-30.767l.114.595 28.151 146.656zm216.59-90.013-.01-.004-1.065-.422c-5.841-2.31-11.069-4.377-14.916-7.045-4.047-2.806-6.501-6.231-6.501-11.266 0-4.69 1.957-8.4 5.469-10.951 3.53-2.565 8.668-3.987 15.045-3.987 11.951 0 21.556 4.297 30.804 11.958l.39.323.318-.393 14.868-18.407.281-.347-.313-.318C533.802 7.277 516.623.5 499.449.5c-29.931 0-51.25 18.555-51.25 42.854 0 21.668 15.091 33.676 30.043 39.847h.003l19.621 8.312 1.365.576c5.959 2.518 10.901 4.606 14.439 7.255 1.891 1.416 3.359 2.978 4.357 4.831.997 1.851 1.539 4.019 1.539 6.669 0 4.998-1.966 9.05-5.77 11.869-3.823 2.833-9.552 4.454-17.123 4.454-12.729 0-26.49-6.461-36.93-16.097l-.386-.356-.337.403-16.85 20.188-.299.358.337.323c14.368 13.747 34.118 21.514 53.871 21.514 34.11 0 54.421-20.549 54.421-44.833 0-10.689-2.955-18.918-8.189-25.4-5.226-6.472-12.694-11.164-21.658-14.844h-.001l-19.225-8.113z" stroke="#fff" stroke-opacity=".2"/>
</svg>
