<svg width="277" height="96" viewBox="0 0 277 96" fill="none" xmlns="http://www.w3.org/2000/svg">
    <path d="m75.152 85.796.009.01.01.01c2.57 2.448 5.69 3.673 9.329 3.673h31.75v-7.285H84.5c-1.704 0-3.07-.546-4.138-1.62-1.068-1.075-1.612-2.45-1.612-4.165v-37.21H110v-7.284H78.75V13.57c0-1.574.536-2.886 1.612-3.968l.01-.01.008-.01c1.073-1.199 2.433-1.797 4.12-1.797h31.75V.5H84.5c-3.648 0-6.77 1.297-9.339 3.88v-.001l-.01.01c-2.43 2.58-3.651 5.648-3.651 9.18v62.85c0 3.658 1.217 6.793 3.652 9.377zM.5 90.497v.5h7.25v-73.79L44.302 90.72l.138.277h7.06V2.008h-7.25v73.79L7.698 2.287l-.138-.278H.5v88.49zM232.856 87.77l.008.011.01.01c2.368 2.466 5.253 3.709 8.626 3.709h23c3.259 0 6.082-1.247 8.447-3.71l.009-.01c2.364-2.598 3.544-5.749 3.544-9.422V52.78l-.259-.142-39.991-21.98V15.15c0-1.597.499-2.923 1.487-4.01l.009-.009.008-.01c.985-1.203 2.221-1.792 3.746-1.792h23c1.392 0 2.573.579 3.566 1.792l.017.02.018.019c1.102 1.09 1.649 2.41 1.649 3.99v.5h6.75v-.5c0-3.547-1.183-6.63-3.544-9.225-2.362-2.596-5.188-3.917-8.456-3.917h-23c-3.382 0-6.27 1.316-8.635 3.917h-.001l-.008.01c-2.238 2.596-3.356 5.676-3.356 9.215v19.258l.259.143 39.991 21.98v21.827c0 1.724-.555 3.106-1.649 4.188l-.009.01-.009.009c-.986 1.084-2.171 1.614-3.583 1.614h-23c-1.544 0-2.784-.538-3.763-1.614-.982-1.08-1.487-2.468-1.487-4.207v-.5h-6.75v.5c0 3.666 1.115 6.813 3.356 9.413z" fill="#CAFF86" stroke="#CAFF86"/>
    <path d="m160.285 91.226.715 2.26.715-2.26L173 55.561l11.285 35.665.715 2.26.715-2.26 28-88.491.309-.977h-5.573l-.166.524L185 75.872l-9.213-29.118 13.928-44.02.309-.976h-5.573l-.166.524L173 37.947 161.715 2.282l-.166-.524h-5.573l.309.977 13.928 44.02L161 75.871l-23.285-73.59-.166-.524h-5.573l.309.977 28 88.491z" fill="#CAFF86" stroke="#CAFF86" stroke-width="1.5"/>
</svg>
