<svg width="140" height="303" viewBox="0 0 140 303" fill="none" xmlns="http://www.w3.org/2000/svg">
    <g clip-path="url(#lk5qyrthoa)" fill="#E6E6E6" fill-opacity=".2">
        <path d="M121.257 107.079c-.702-.511-1.776-1.449-3.14-2.65-5.233-4.584-14.005-12.246-20.189-12.246-2.423 0-4.227 1.173-5.37 3.492-1.433 2.9 1.721 9.637 3.814 14.096.51 1.091.95 2.03 1.226 2.706.564 1.395 1.088 2.665 1.515 3.811 2.919 7.676 5.949 15.601 8.194 24.216.234.897.454 1.919.702 2.995 1.033 4.598 2.3 10.3 5.467 13.102 1.226 1.091 2.424 1.809 3.553 2.154a5.507 5.507 0 0 0 1.543.235c3.746 0 6.321-4.266 8.813-8.394a88.678 88.678 0 0 1 1.736-2.803l.55-.842c9.489-14.483 15.218-23.236-2.231-35.371-1.693-1.201-3.883-2.816-6.183-4.501zm7.85 39.472-.551.842a81.903 81.903 0 0 0-1.749 2.83c-2.396 3.962-4.861 8.063-8.222 8.063-.44 0-.881-.069-1.335-.207-1.033-.304-2.149-.981-3.305-2.002-3.003-2.651-4.256-8.242-5.261-12.743-.248-1.091-.468-2.113-.702-3.01-2.259-8.642-5.289-16.595-8.222-24.285-.44-1.146-.95-2.429-1.529-3.824-.289-.69-.73-1.643-1.24-2.747-1.913-4.073-5.108-10.893-3.814-13.489 1.033-2.084 2.59-3.106 4.751-3.106 5.922 0 14.571 7.566 19.735 12.08 1.377 1.201 2.465 2.154 3.195 2.692 2.3 1.685 4.503 3.3 6.211 4.487 16.883 11.749 11.292 20.281 2.038 34.419z"/>
        <path d="M132.536 91.589c-3.044-2.223-6.073-4.708-9.282-7.331-9.819-8.035-20.933-17.147-30.93-17.147-1.97 0-3.843.345-5.73 1.063-17.654 6.696-15.12 25.403-12.05 35.964 1.887 6.448 4.311 12.84 6.666 19.011 2.74 7.193 5.577 14.635 7.547 22.214 1.198 4.57 1.79 9.388 2.368 14.041 1.777 14.289 3.457 27.778 22.461 27.778a49.78 49.78 0 0 0 4.82-.249c2.163-.221 3.939-.552 5.454-1.035 5.054-1.63 6.569-4.708 8.855-9.361.688-1.408 1.473-2.996 2.451-4.722 1.488-2.636 3.113-5.135 4.806-7.538v-.718c-1.817 2.568-3.566 5.233-5.164 8.049-.978 1.726-1.763 3.328-2.465 4.736-2.245 4.556-3.718 7.566-8.607 9.139-1.487.484-3.236.815-5.371 1.022-1.68.166-3.291.249-4.779.249-18.646 0-20.216-12.702-22.047-27.419-.579-4.667-1.185-9.499-2.383-14.096-1.983-7.607-4.82-15.049-7.574-22.255-2.355-6.172-4.779-12.536-6.652-18.97-3.043-10.423-5.55-28.896 11.788-35.467 1.832-.69 3.664-1.036 5.578-1.036 9.846 0 20.905 9.057 30.669 17.05 3.209 2.638 6.252 5.123 9.295 7.345 2.3 1.685 4.325 3.162 5.84 4.211l1.859 1.284v-.483c-.537-.373-1.088-.746-1.625-1.118-1.474-1.063-3.498-2.54-5.798-4.211z"/>
        <path d="M132.866 103.738c-1.597-1.118-3.759-2.692-6.018-4.335-3.236-2.375-6.362-4.929-9.695-7.648-.743-.608-1.57-1.312-2.437-2.044-5.55-4.721-13.152-11.183-20.148-11.183-1.928 0-3.718.497-5.316 1.491-12.09 7.497-4.82 25.39-.482 36.076.524 1.297 1.033 2.526 1.446 3.617 2.837 7.427 5.77 15.117 7.878 23.221.399 1.519.798 3.314 1.212 5.205 1.928 8.67 4.558 20.557 11.182 24.837 1.088.704 2.245 1.146 3.415 1.312.344.055.716.069 1.074.069 8.098 0 16.168-12.329 22.076-21.344 1.074-1.629 2.038-3.107 2.933-4.391v-.717c-.978 1.394-2.065 3.037-3.277 4.887-5.839 8.932-13.854 21.151-21.732 21.151-.344 0-.674-.028-1.019-.069-1.115-.152-2.203-.58-3.25-1.243-6.486-4.183-9.103-15.973-11.003-24.575-.427-1.891-.813-3.686-1.212-5.218-2.12-8.118-5.054-15.822-7.891-23.263-.413-1.091-.909-2.32-1.446-3.618-4.297-10.575-11.472-28.26.317-35.564a9.537 9.537 0 0 1 5.095-1.436c6.845 0 14.378 6.406 19.872 11.087.868.745 1.694 1.435 2.465 2.07 3.319 2.707 6.445 5.274 9.695 7.65 2.259 1.656 4.421 3.23 6.019 4.348 2.148 1.491 4.324 2.968 6.637 4.542.248.166.482.318.716.483v-.497c-.165-.11-.33-.221-.509-.345-2.272-1.601-4.448-3.065-6.597-4.556z"/>
        <path d="M61.283 201.706c.785 1.021 2.244 2.416 5.921 2.719 13.758 1.132 34.567 2.831 52.125 18.873l.207.18c6.004 5.494 10.879 12.453 14.487 20.681 1.006 2.264 2.617 3.576 4.448 3.576.496 0 1.006-.097 1.515-.304v-.497c-.496.235-1.005.387-1.515.387-1.652 0-3.14-1.215-4.076-3.328-3.636-8.283-8.552-15.283-14.598-20.819l-.206-.18c-17.669-16.139-38.56-17.851-52.373-18.983-3.512-.29-4.902-1.601-5.632-2.554-1.75-2.292-1.97-5.84-1.777-6.931 1.914-8.449 4.297-18.969 3.402-30.469-1.501-19.481-9.282-36.227-16.788-52.422-6.032-12.991-12.862-27.722-10.493-34.432 4.227-11.942 21.497-29.075 28.713-35.882 4.586-4.32 10.053-6.516 16.223-6.516 3.525 0 6.569.745 8.51 1.367 12.67 4.1 30.6 13.474 50.596 26.355v-.497c-19.913-12.825-37.788-22.172-50.444-26.259-1.956-.635-5.054-1.394-8.635-1.394-6.28 0-11.83 2.236-16.498 6.64-7.244 6.835-24.568 24.023-28.823 36.048-2.424 6.875 4.448 21.675 10.507 34.75 7.492 16.153 15.245 32.858 16.76 52.269.895 11.445-1.487 21.924-3.388 30.373-.234 1.146 0 4.86 1.832 7.249z"/>
        <path d="M87.214 189.197c3.14 1.726 7.437 2.458 11.596 3.162 3.085.524 6.266 1.063 8.855 2.002 1.639.593 3.443 1.491 5.357 2.429 3.952 1.947 8.428 4.17 12.504 4.17.785 0 1.543-.083 2.259-.249.193-.041.372-.096.564-.151 5.839-1.74 8.952-9.085 11.637-15.822v-1.118c-.014.041-.027.082-.055.124-2.727 6.875-5.811 14.662-11.706 16.429a7.56 7.56 0 0 1-.537.138 9.866 9.866 0 0 1-2.162.235c-3.98 0-8.414-2.195-12.325-4.128-1.928-.953-3.746-1.85-5.399-2.444-2.63-.953-5.839-1.491-8.937-2.029-4.132-.705-8.4-1.436-11.472-3.121-6.803-3.741-6.087-10.589-5.343-17.837.29-2.83.592-5.771.386-8.449-1.777-22.973-10.288-41.321-18.523-59.048-3.732-8.05-4.007-16.885-.771-24.851 3.511-8.629 10.865-15.6 20.175-19.121a25.18 25.18 0 0 1 8.993-1.657c13.289 0 25.766 10.216 36.769 19.232 3.113 2.554 6.06 4.956 8.883 7.027.73.538 1.391 1.021 2.01 1.477v-.51c-.55-.401-1.143-.83-1.776-1.299-2.809-2.057-5.756-4.459-8.869-7.013-11.031-9.07-23.563-19.328-37.004-19.328-3.112 0-6.183.566-9.13 1.684-9.42 3.562-16.856 10.617-20.41 19.356-3.29 8.077-3.001 17.023.786 25.182 8.221 17.713 16.718 36.02 18.481 58.91.207 2.637-.096 5.564-.386 8.38-.743 7.069-1.487 14.372 5.55 18.238z"/>
        <path d="M78.29 196.639c2.823.704 5.564 1.353 8.236 1.96 14.405 3.341 26.826 6.24 39.262 17.52l.248.221c2.864 2.595 5.109 3.852 6.899 3.852.276 0 .551-.028.813-.097 2.699-.621 4.049-4.404 5.522-9.278.234-.759.482-1.504.716-2.25v-1.353c-.385 1.16-.757 2.333-1.115 3.493-1.446 4.749-2.741 8.422-5.22 9.001-1.79.415-4.145-.773-7.34-3.672l-.248-.221c-12.518-11.362-24.995-14.261-39.455-17.616-2.658-.622-5.412-1.257-8.221-1.961-10.095-2.54-8.387-12.066-6.734-21.261.716-4.017 1.473-8.187 1.198-11.666-1.64-21.22-9.778-38.767-17.655-55.749-.937-2.029-1.956-4.003-2.92-5.922-5.054-9.954-9.433-18.542-3.181-29.117 4.696-7.952 11.747-14.469 18.55-20.764 1.226-1.132 2.451-2.264 3.65-3.397 2.63-2.47 6.21-3.727 10.631-3.727 16.966 0 43.063 18.1 58.074 29.006v-.51c-15.093-10.963-41.08-28.924-58.074-28.924-4.53 0-8.208 1.297-10.92 3.838-1.199 1.132-2.424 2.264-3.65 3.396-6.83 6.323-13.895 12.853-18.633 20.861-6.362 10.769-1.735 19.88 3.168 29.517.977 1.919 1.983 3.893 2.92 5.923 7.849 16.94 15.988 34.446 17.613 55.597.261 3.424-.482 7.565-1.198 11.555-1.667 9.388-3.402 19.108 7.064 21.745z"/>
        <path d="M121.326 301.233c1.777 1.132 4.641 1.753 8.098 1.753 3.071 0 6.706-.511 10.576-1.698v-1.008c-3.87 1.215-7.505 1.74-10.576 1.74-3.223 0-5.977-.58-7.575-1.602-8.097-5.177-11.664-14.33-15.451-24.008-3.264-8.353-6.652-16.995-13.207-23.084l-.014-.29-.289.014c-7.547-6.668-17.696-9.913-31.054-9.913-13.028 0-26.73 3.134-37.734 5.647-7.52 1.726-14.02 3.203-18.206 3.203-2.451 0-3.952-.511-4.572-1.546-.826-1.381-.207-3.99 1.832-7.718 9.516-17.423 28.74-58.952 27.405-76.14-1.047-13.557-7.547-27.571-13.84-41.114-9.09-19.591-18.51-39.872-11.651-59.242C12.89 44.124 47.332 4.611 71.832 1.257a34.48 34.48 0 0 1 4.586-.29c15.947 0 39.262 9.526 63.568 23.318v-1.036C115.68 9.485 92.379 0 76.418 0c-1.653 0-3.237.097-4.71.304C46.892 3.7 12.05 43.586 4.159 65.896c-6.982 19.742 2.52 40.203 11.692 60.001 6.252 13.461 12.71 27.391 13.744 40.783 1.184 15.324-15.576 54.161-27.281 75.601-2.273 4.17-2.865 6.931-1.818 8.684.799 1.367 2.575 2.016 5.398 2.016 4.297 0 10.838-1.491 18.413-3.231 10.962-2.512 24.609-5.633 37.527-5.633 13.193 0 23.19 3.203 30.558 9.789 6.487 5.95 9.847 14.551 13.111 22.863 3.842 9.83 7.464 19.121 15.823 24.464z"/>
        <path d="M28.231 230.96c.978 1.422 3.388 2.03 8.03 2.03 2.905 0 6.361-.235 10.369-.497 4.958-.331 10.59-.704 16.402-.704 18.412 0 30.834 3.921 39.11 12.37 7.699 5.937 11.94 15.615 15.686 24.16 4.558 10.383 8.483 19.343 17.173 19.343.923 0 1.9-.111 2.892-.318a24.617 24.617 0 0 0 2.093-.538v-.718a23.58 23.58 0 0 1-2.231.593c-.95.194-1.886.304-2.754.304-8.235 0-12.078-8.767-16.539-18.928-3.788-8.615-8.07-18.376-15.865-24.395-8.387-8.56-20.96-12.55-39.565-12.55-5.84 0-11.472.373-16.457.704-3.994.263-7.45.497-10.329.497-4.269 0-6.638-.552-7.45-1.725-.44-.649-.454-1.519-.028-2.679 8.76-23.484 16.1-53.208 15.383-62.361-1.24-16.029-8.263-31.174-15.066-45.822-8.318-17.907-16.167-34.82-11.182-48.929 6.94-19.604 38.615-53.636 55.76-55.983.827-.11 1.75-.166 2.74-.166 13.359 0 36.894 9.595 63.569 25.445v-.801c-26.62-15.808-50.141-25.348-63.555-25.348-1.032 0-1.983.055-2.836.18-17.339 2.374-49.33 36.682-56.325 56.439-5.082 14.371 2.823 31.408 11.196 49.452 6.775 14.593 13.771 29.67 15.01 45.574.62 8.021-5.949 36.876-15.34 62.058-.51 1.394-.483 2.471.11 3.313z"/>
        <path d="M49.026 212.985c2.562 3.686 7.974 4.1 15.452 4.68.812.055 1.652.125 2.506.194 2.369.193 4.848.276 7.464.372 12.174.414 25.973.898 38.436 12.274l.152.138c6.913 6.061 11.017 16.747 14.652 26.176 3.65 9.499 6.817 17.699 11.83 17.699.151 0 .317-.027.468-.055v-.414c-.151.014-.317.055-.468.055-4.737 0-7.836-8.076-11.444-17.437-3.649-9.471-7.781-20.212-14.763-26.342l-.151-.138c-12.574-11.473-26.455-11.956-38.698-12.37-2.617-.097-5.096-.179-7.45-.373-.854-.069-1.694-.138-2.507-.193-7.367-.566-12.697-.98-15.148-4.501-2.314-3.341-1.997-9.609 1.06-20.294 2.823-9.899 3.884-18.942 3.209-27.64-1.377-17.741-8.773-33.673-15.92-49.094-7.464-16.098-14.529-31.298-10.838-41.736 6.142-17.381 35.806-48.058 48.09-49.729.275-.041.743-.083 1.46-.083 10.26 0 33.478 8.56 63.568 27.046v-.483c-30.063-18.459-53.281-26.99-63.568-26.99-.73 0-1.226.04-1.515.082-12.38 1.698-42.251 32.54-48.42 50.006-3.746 10.603 3.346 25.872 10.851 42.053 7.134 15.379 14.515 31.27 15.879 48.942.675 8.656-.372 17.658-3.195 27.501-3.126 10.962-3.43 17.147-.992 20.654z"/>
    </g>
    <defs>
        <clipPath id="lk5qyrthoa">
            <path fill="#fff" d="M0 0h140v303H0z"/>
        </clipPath>
    </defs>
</svg>
