<svg width="433" height="340" viewBox="0 0 433 340" fill="none" xmlns="http://www.w3.org/2000/svg">
    <g opacity=".2" fill="#E6E6E6">
        <path d="M432.353 168.668c-6.344-25.542-57.613-32.402-116.99-40.294-14.681-1.965-29.853-3.963-44.566-6.36-65.1-10.457-124.674-43.724-182.286-75.926C59.639 30.004 30.179 13.52 0 0v2.53c29.754 13.421 58.887 29.672 87.4 45.623 57.775 32.268 117.545 65.669 183.037 76.192 14.779 2.364 29.95 4.395 44.631 6.36 56.108 7.493 109.078 14.553 115.061 38.562 4.643 18.715-19.291 47.121-73.176 86.815-75.628 55.712-139.06 81.654-199.68 81.654-34.463 0-68.599-8.725-101.525-25.875-20.5-10.756-38.55-23.743-55.748-36.864v2.897c16.872 12.821 34.593 25.475 54.702 35.965C87.955 331.209 122.45 340 157.273 340c61.11 0 125-26.074 201.021-82.086 55.487-40.86 79.028-69.199 74.059-89.246z"/>
        <path d="M69.743 283.955c24.85 12.954 45.972 19.014 66.44 19.014 21.449 0 40.512-6.56 62.582-14.152 12.523-4.296 26.714-9.191 42.8-13.321 8.175-2.098 15.27-2.331 19.913-2.331 3.106 0 6.114.134 8.992.233 2.746.1 5.329.234 7.88.234 13.242 0 23.803-3.197 35.345-19.082 7.782-10.723 10.725-19.014 13.275-26.307 3.858-10.923 6.899-19.548 23.836-31.902 4.349-3.164 10.561-5.661 16.61-8.059 9.679-3.896 18.049-7.226 18.409-12.921.294-4.595-4.97-9.724-16.578-16.151-13.863-7.659-33.678-8.691-51.236-8.691-7.814 0-16.054.233-24 .499-7.978.234-16.25.5-24.13.5-17.624 0-29.95-1.232-40.021-4.029-56.827-15.818-110.189-45.622-157.24-71.897C47.901 61.806 23.934 48.42 0 36.93v1.832C23.673 50.15 47.378 63.404 71.835 77.058c47.149 26.34 100.576 56.178 157.698 71.962 10.201 2.831 22.692 4.096 40.446 4.096 7.913 0 16.185-.233 24.196-.499 7.945-.233 16.152-.5 23.934-.5 17.33 0 36.882.999 50.452 8.492 10.659 5.894 15.956 10.823 15.727 14.586-.294 4.629-8.599 7.959-17.362 11.455-6.115 2.464-12.425 4.995-16.937 8.259-17.362 12.654-20.632 21.945-24.425 32.701-2.55 7.193-5.428 15.352-13.079 25.875-11.149 15.318-21.285 18.415-34.037 18.415-2.518 0-5.101-.1-7.815-.233a197.02 197.02 0 0 0-9.057-.233c-4.741 0-11.967.233-20.305 2.364-16.152 4.129-30.375 9.025-42.931 13.354-21.94 7.559-40.871 14.086-62.059 14.086-20.207 0-41.1-5.994-65.72-18.815-22.562-11.689-42.801-27.307-62.387-42.425C5.46 237.9 2.747 235.802 0 233.704v2.098c2.42 1.832 4.806 3.696 7.193 5.528 19.619 15.152 39.923 30.803 62.55 42.625z"/>
        <path d="M84.816 254.017c24.163 12.621 47.836 18.748 72.424 18.748 13.765 0 43.487-5.727 69.383-15.285 22.692-8.391 49.765-22.311 49.83-41.026.066-22.045-41.721-34.3-66.702-41.626-5.427-1.598-10.136-2.964-13.242-4.129-44.729-16.517-89.132-37.364-139.714-65.603C37.438 94.307 18.572 83.784 0 74.326v1.133c18.408 9.39 37.111 19.814 56.272 30.536 50.647 28.273 95.082 49.152 139.845 65.669 3.171 1.166 7.88 2.531 13.307 4.13 24.719 7.226 66.081 19.347 66.016 40.66-.099 32.368-89.688 55.312-118.233 55.312-24.424 0-47.966-6.094-71.966-18.648-19.978-10.423-39.073-25.175-57.514-39.395C18.801 206.83 9.613 199.737 0 192.844v1.232c9.384 6.76 18.376 13.686 27.139 20.446 18.506 14.253 37.601 29.039 57.677 39.495z"/>
        <path d="M95.246 233.272c20.828 10.889 41.101 16.15 61.994 16.184 18.147 0 41.819-5.495 50.942-17.516 3.956-5.229 5.101-11.356 3.335-18.216-4.153-16.151-37.34-27.573-61.601-35.898-7.848-2.697-14.616-5.029-18.768-6.993-28.022-13.254-55.749-28.739-82.56-43.691l-2.976-1.665C30.114 116.819 14.942 108.361 0 100.502v1.132c14.779 7.792 29.787 16.151 45.122 24.742l2.975 1.665c26.812 14.986 54.572 30.471 82.593 43.724 4.218 1.998 10.986 4.329 18.866 7.027 22.692 7.792 56.958 19.58 60.947 35.198 1.668 6.561.622 12.388-3.139 17.35-8.926 11.755-32.239 17.117-50.222 17.117-20.665 0-40.806-5.262-61.503-16.085-18.147-9.49-36.425-23.576-54.081-37.23-12.785-9.89-26.517-20.446-41.558-30.47v1.199c14.812 9.89 28.348 20.313 40.97 30.07 17.688 13.654 35.999 27.807 54.276 37.331z"/>
        <path d="M105.513 212.825c6.507 3.397 24.85 9.491 38.125 9.491 4.741 0 8.37-.8 10.757-2.398 5.166-3.43 7.455-6.627 6.997-9.824-1.046-7.026-16.054-11.255-28.086-14.652-4.97-1.399-9.221-2.631-11.673-3.763-28.708-13.553-56.762-29.238-83.9-44.39l-3.009-1.665C22.986 139.031 11.411 132.57 0 126.41v1.898c11.15 6.027 22.463 12.354 33.972 18.748l3.008 1.665c27.172 15.185 55.258 30.87 83.999 44.456 2.55 1.199 6.899 2.431 11.902 3.863 10.986 3.097 25.994 7.36 26.909 13.321.36 2.431-1.733 5.195-6.278 8.158-2.125 1.399-5.427 2.098-9.874 2.098-12.85 0-31.193-6.061-37.405-9.291-16.349-8.525-33.776-21.978-50.68-35.032C39.464 163.873 21.122 149.72 0 136.866v1.965c20.73 12.687 38.779 26.607 54.637 38.862 16.904 13.02 34.397 26.507 50.876 35.132z"/>
    </g>
</svg>
