<svg width="129" height="101" viewBox="0 0 129 101" fill="none" xmlns="http://www.w3.org/2000/svg">
    <path d="M128.807 50.104c-1.89-7.587-17.164-9.625-34.854-11.97-4.374-.583-8.893-1.176-13.277-1.889C61.281 33.14 43.533 23.257 26.37 13.691 17.768 8.913 8.991 4.016 0 0v.752c8.864 3.986 17.544 8.814 26.038 13.552 17.213 9.586 35.02 19.508 54.531 22.634 4.403.702 8.923 1.305 13.297 1.89 16.715 2.225 32.496 4.322 34.279 11.454 1.383 5.56-5.748 13.998-21.801 25.79-22.531 16.55-41.429 24.255-59.49 24.255-10.266 0-20.436-2.591-30.245-7.686C10.5 89.446 5.124 85.588 0 81.691v.86c5.026 3.808 10.306 7.567 16.297 10.684C26.204 98.388 36.48 101 46.855 101c18.206 0 37.24-7.746 59.888-24.384 16.531-12.138 23.545-20.556 22.064-26.512z" fill="#E6E6E6" fill-opacity=".2"/>
    <path d="M20.778 84.351C28.18 88.2 34.474 90 40.572 90c6.39 0 12.07-1.949 18.644-4.204 3.731-1.277 7.959-2.73 12.752-3.957 2.435-.624 4.549-.693 5.932-.693.925 0 1.822.04 2.679.07.818.03 1.588.069 2.347.069 3.945 0 7.092-.95 10.53-5.669 2.319-3.185 3.196-5.648 3.955-7.814 1.15-3.245 2.056-5.807 7.102-9.477 1.295-.94 3.146-1.682 4.948-2.394 2.884-1.158 5.377-2.147 5.484-3.838.088-1.366-1.48-2.889-4.938-4.798-4.131-2.275-10.034-2.582-15.265-2.582-2.328 0-4.783.07-7.15.148-2.376.07-4.841.149-7.189.149-5.25 0-8.922-.366-11.923-1.197-16.93-4.7-32.827-13.553-46.845-21.358C14.271 18.36 7.131 14.383 0 10.971v.543c7.053 3.384 14.115 7.32 21.401 11.377 14.047 7.824 29.964 16.688 46.982 21.377 3.039.84 6.76 1.217 12.05 1.217 2.357 0 4.821-.07 7.208-.149 2.367-.07 4.812-.148 7.13-.148 5.163 0 10.989.297 15.031 2.522 3.176 1.751 4.754 3.215 4.686 4.333-.088 1.375-2.562 2.364-5.173 3.403-1.822.732-3.702 1.484-5.046 2.453-5.172 3.76-6.147 6.52-7.276 9.715-.76 2.136-1.617 4.56-3.897 7.686-3.322 4.55-6.341 5.47-10.14 5.47-.75 0-1.52-.03-2.329-.069-.867-.04-1.763-.07-2.698-.07-1.412 0-3.565.07-6.05.703-4.811 1.227-9.049 2.68-12.79 3.967-6.535 2.245-12.176 4.184-18.488 4.184-6.02 0-12.244-1.78-19.58-5.589-6.721-3.472-12.75-8.111-18.586-12.603C1.627 70.67.818 70.047 0 69.423v.624c.72.544 1.432 1.098 2.143 1.642 5.845 4.501 11.894 9.15 18.635 12.662z" fill="#E6E6E6" fill-opacity=".2"/>
    <path d="M25.268 75.458c7.2 3.75 14.252 5.57 21.577 5.57 4.101 0 12.956-1.702 20.67-4.541 6.761-2.493 14.827-6.628 14.846-12.188.02-6.548-12.43-10.189-19.872-12.365-1.617-.475-3.02-.88-3.945-1.226C45.218 45.8 31.99 39.608 16.92 31.22 11.154 28.015 5.533 24.889 0 22.08v.336c5.484 2.79 11.056 5.886 16.765 9.07 15.088 8.4 28.327 14.602 41.662 19.508.945.347 2.348.752 3.965 1.227 7.364 2.147 19.687 5.748 19.667 12.078-.029 9.616-26.72 16.432-35.224 16.432-7.276 0-14.29-1.81-21.44-5.54-5.952-3.096-11.64-7.479-17.135-11.703-2.659-2.047-5.396-4.154-8.26-6.202v.366c2.796 2.008 5.475 4.066 8.085 6.074 5.514 4.234 11.203 8.626 17.183 11.732z" fill="#E6E6E6" fill-opacity=".2"/>
    <path d="M28.376 69.295c6.205 3.235 12.245 4.798 18.47 4.808 5.406 0 12.458-1.632 15.176-5.203 1.178-1.553 1.52-3.374.993-5.411-1.237-4.798-11.124-8.191-18.352-10.664-2.338-.802-4.354-1.494-5.591-2.078-8.348-3.937-16.609-8.537-24.597-12.978l-.886-.495C8.972 34.702 4.452 32.19 0 29.855v.336c4.403 2.315 8.874 4.798 13.443 7.35l.886.495c7.988 4.451 16.258 9.051 24.606 12.988 1.257.594 3.273 1.286 5.621 2.088 6.76 2.314 16.969 5.816 18.158 10.456.496 1.949.184 3.68-.936 5.154-2.659 3.492-9.605 5.084-14.962 5.084-6.157 0-12.157-1.563-18.323-4.778-5.406-2.819-10.852-7.003-16.112-11.06-3.809-2.937-7.9-6.073-12.381-9.05v.355c4.413 2.938 8.446 6.035 12.206 8.933 5.27 4.056 10.725 8.26 16.17 11.09z" fill="#E6E6E6" fill-opacity=".2"/>
    <path d="M31.435 63.221c1.938 1.01 7.403 2.82 11.358 2.82 1.412 0 2.494-.238 3.205-.712 1.539-1.02 2.22-1.97 2.084-2.919-.311-2.087-4.783-3.343-8.367-4.352-1.481-.416-2.747-.782-3.478-1.118-8.553-4.026-16.91-8.685-24.996-13.186l-.896-.495A710.009 710.009 0 0 0 0 37.55v.564c3.322 1.79 6.692 3.67 10.121 5.57l.896.494c8.095 4.51 16.463 9.17 25.025 13.206.76.356 2.056.722 3.546 1.148 3.273.92 7.744 2.186 8.017 3.956.107.723-.516 1.544-1.87 2.424-.633.416-1.617.623-2.942.623-3.828 0-9.293-1.8-11.144-2.76-4.87-2.532-10.063-6.529-15.099-10.406C11.758 48.68 6.293 44.476 0 40.657v.584c6.176 3.769 11.553 7.904 16.277 11.544 5.037 3.868 10.248 7.874 15.158 10.436z" fill="#E6E6E6" fill-opacity=".2"/>
</svg>
