<svg width="296" height="639" viewBox="0 0 296 639" fill="none" xmlns="http://www.w3.org/2000/svg">
    <g opacity=".2" clip-path="url(#15nvpocvva)" fill="#E6E6E6">
        <path d="M256.372 225.821c-1.485-1.078-3.756-3.058-6.638-5.591-11.065-9.666-29.612-25.825-42.685-25.825-5.125 0-8.939 2.475-11.356 7.366-3.028 6.114 3.64 20.323 8.065 29.727 1.078 2.3 2.009 4.28 2.592 5.707 1.194 2.94 2.3 5.619 3.203 8.036 6.172 16.188 12.578 32.9 17.324 51.068.495 1.893.961 4.047 1.485 6.318 2.184 9.696 4.863 21.721 11.559 27.631 2.592 2.3 5.125 3.814 7.512 4.542 1.107.32 2.184.495 3.261.495 7.92 0 13.365-8.997 18.635-17.702 1.194-1.98 2.446-4.047 3.669-5.911l1.165-1.776c20.061-30.542 32.173-49.001-4.717-74.594-3.582-2.533-8.211-5.939-13.074-9.491zm16.597 83.241-1.165 1.776a172.787 172.787 0 0 0-3.698 5.969c-5.066 8.356-10.278 17.003-17.382 17.003a9.668 9.668 0 0 1-2.825-.436c-2.183-.641-4.542-2.068-6.988-4.222-6.347-5.59-8.997-17.382-11.122-26.874-.524-2.3-.99-4.455-1.485-6.347-4.775-18.226-11.181-34.997-17.383-51.214a332.126 332.126 0 0 0-3.232-8.065c-.611-1.456-1.543-3.465-2.62-5.794-4.048-8.59-10.803-22.973-8.066-28.446 2.184-4.397 5.474-6.551 10.046-6.551 12.52 0 30.805 15.955 41.724 25.476 2.911 2.533 5.212 4.542 6.755 5.677 4.862 3.552 9.521 6.959 13.131 9.463 35.697 24.777 23.876 42.771 4.31 72.585z"/>
        <path d="M280.219 193.153c-6.435-4.688-12.841-9.929-19.625-15.461-20.76-16.945-44.257-36.161-65.396-36.161-4.164 0-8.123.728-12.112 2.242-37.328 14.121-31.971 53.572-25.478 75.846 3.989 13.597 9.114 27.077 14.093 40.092 5.794 15.169 11.792 30.863 15.956 46.847 2.533 9.637 3.785 19.799 5.008 29.611 3.756 30.134 7.308 58.58 47.489 58.58 3.174 0 6.61-.175 10.191-.524 4.571-.466 8.327-1.165 11.53-2.184 10.686-3.435 13.889-9.928 18.722-19.74 1.456-2.97 3.116-6.318 5.183-9.958 3.145-5.561 6.58-10.831 10.162-15.897v-1.514c-3.844 5.416-7.541 11.035-10.919 16.975-2.067 3.639-3.727 7.017-5.212 9.986-4.746 9.609-7.861 15.956-18.198 19.275-3.144 1.019-6.842 1.718-11.355 2.154-3.553.35-6.959.525-10.104.525-39.424 0-42.743-26.787-46.616-57.824-1.222-9.841-2.504-20.032-5.037-29.727-4.193-16.043-10.191-31.736-16.014-46.934-4.979-13.015-10.103-26.437-14.063-40.005-6.435-21.983-11.734-60.939 24.924-74.798 3.872-1.456 7.745-2.184 11.792-2.184 20.818 0 44.199 19.1 64.843 35.958 6.784 5.561 13.219 10.802 19.653 15.489 4.863 3.552 9.143 6.668 12.346 8.881l3.931 2.707v-1.019c-1.136-.786-2.301-1.572-3.436-2.358-3.116-2.242-7.396-5.357-12.258-8.88z"/>
        <path d="M280.918 218.774c-3.378-2.358-7.949-5.677-12.724-9.142-6.843-5.008-13.452-10.394-20.499-16.13-1.572-1.281-3.319-2.766-5.153-4.309-11.734-9.958-27.807-23.584-42.598-23.584-4.076 0-7.861 1.049-11.239 3.145-25.564 15.81-10.191 53.543-1.019 76.079 1.106 2.737 2.184 5.328 3.057 7.628 5.998 15.664 12.2 31.882 16.655 48.973.844 3.202 1.689 6.987 2.562 10.976 4.077 18.285 9.638 43.353 23.643 52.379 2.3 1.485 4.746 2.417 7.221 2.766.728.117 1.514.146 2.271.146 17.121 0 34.183-26 46.674-45.013 2.271-3.436 4.309-6.551 6.202-9.259v-1.514c-2.067 2.941-4.368 6.406-6.93 10.307-12.345 18.838-29.291 44.605-45.946 44.605a17.93 17.93 0 0 1-2.155-.145c-2.358-.321-4.658-1.223-6.871-2.621-13.714-8.822-19.246-33.686-23.264-51.825-.903-3.989-1.718-7.774-2.563-11.006-4.484-17.12-10.685-33.367-16.683-49.06a278.82 278.82 0 0 0-3.058-7.628c-9.084-22.303-24.254-59.6.67-75.002 3.261-2.009 6.871-3.028 10.773-3.028 14.471 0 30.398 13.51 42.015 23.38a327.98 327.98 0 0 0 5.212 4.367c7.017 5.707 13.627 11.122 20.498 16.13 4.776 3.494 9.347 6.813 12.724 9.172 4.543 3.144 9.143 6.259 14.035 9.579.524.349 1.019.669 1.514 1.019v-1.049c-.35-.232-.699-.465-1.078-.727-4.804-3.378-9.404-6.464-13.946-9.609z"/>
        <path d="M129.569 425.379c1.66 2.155 4.746 5.095 12.52 5.736 29.088 2.387 73.083 5.969 110.207 39.801l.437.378c12.694 11.588 23.002 26.263 30.63 43.616 2.126 4.775 5.532 7.54 9.405 7.54a8.488 8.488 0 0 0 3.203-.64v-1.048c-1.048.495-2.126.815-3.203.815-3.494 0-6.639-2.562-8.619-7.017-7.686-17.469-18.081-32.231-30.863-43.906l-.437-.379c-37.357-34.036-81.527-37.646-110.731-40.034-7.424-.611-10.365-3.377-11.908-5.386-3.698-4.833-4.164-12.316-3.756-14.616 4.047-17.819 9.084-40.005 7.191-64.258-3.173-41.082-19.624-76.399-35.493-110.552-12.753-27.398-27.195-58.464-22.187-72.614 8.94-25.185 45.451-61.318 60.708-75.672 9.696-9.113 21.256-13.742 34.3-13.742 7.454 0 13.889 1.572 17.994 2.882 26.787 8.647 64.697 28.417 106.975 55.582v-1.048c-42.103-27.049-79.896-46.76-106.655-55.378-4.134-1.34-10.686-2.941-18.256-2.941-13.277 0-25.011 4.717-34.882 14.005-15.315 14.412-51.944 50.661-60.94 76.02-5.125 14.5 9.404 45.712 22.215 73.284 15.84 34.066 32.232 69.296 35.435 110.232 1.893 24.137-3.144 46.236-7.162 64.054-.495 2.417 0 10.249 3.872 15.286z"/>
        <path d="M184.396 399c6.638 3.639 15.723 5.183 24.516 6.668 6.522 1.106 13.248 2.241 18.722 4.221 3.465 1.252 7.279 3.145 11.327 5.125 8.356 4.105 17.819 8.793 26.437 8.793 1.66 0 3.262-.175 4.776-.525.407-.087.786-.203 1.193-.32 12.346-3.668 18.926-19.158 24.604-33.366v-2.359a.992.992 0 0 1-.117.262c-5.765 14.5-12.287 30.921-24.749 34.648-.378.116-.757.204-1.135.291-1.427.32-2.97.495-4.572.495-8.414 0-17.79-4.629-26.059-8.705-4.076-2.009-7.92-3.902-11.414-5.154-5.561-2.009-12.345-3.144-18.896-4.28-8.735-1.485-17.762-3.028-24.255-6.58-14.383-7.89-12.869-22.332-11.297-37.617.612-5.969 1.252-12.171.815-17.819-3.756-48.449-21.75-87.143-39.161-124.528-7.891-16.974-8.473-35.608-1.631-52.408 7.425-18.197 22.973-32.9 42.656-40.325a53.36 53.36 0 0 1 19.013-3.494c28.098 0 54.477 21.546 77.742 40.558 6.58 5.387 12.811 10.453 18.78 14.82 1.543 1.136 2.941 2.155 4.251 3.116v-1.078c-1.165-.844-2.417-1.747-3.756-2.737-5.94-4.338-12.171-9.404-18.751-14.79-23.323-19.129-49.819-40.762-78.237-40.762-6.58 0-13.073 1.194-19.304 3.552-19.916 7.512-35.639 22.39-43.151 40.82-6.959 17.033-6.347 35.9 1.66 53.107 17.382 37.355 35.347 75.963 39.074 124.236.437 5.561-.204 11.734-.815 17.673-1.572 14.908-3.145 30.31 11.734 38.462z"/>
        <path d="M165.528 414.693a858.627 858.627 0 0 0 17.412 4.135c30.456 7.046 56.719 13.16 83.012 36.947l.524.466c6.056 5.474 10.802 8.124 14.587 8.124a6.79 6.79 0 0 0 1.718-.204c5.707-1.311 8.56-9.288 11.676-19.566.495-1.601 1.019-3.174 1.514-4.746v-2.853a360.977 360.977 0 0 0-2.358 7.366c-3.058 10.016-5.795 17.761-11.036 18.983-3.785.874-8.764-1.63-15.519-7.744l-.524-.466c-26.467-23.962-52.847-30.077-83.419-37.152-5.62-1.31-11.443-2.649-17.383-4.134-21.342-5.357-17.732-25.447-14.238-44.838 1.514-8.473 3.116-17.266 2.533-24.603-3.465-44.75-20.673-81.756-37.327-117.568-1.98-4.28-4.135-8.444-6.173-12.491-10.686-20.992-19.945-39.102-6.726-61.405 9.929-16.77 24.837-30.513 39.22-43.79a920.414 920.414 0 0 0 7.716-7.162c5.561-5.212 13.132-7.861 22.478-7.861 35.872 0 91.048 38.17 122.785 61.171v-1.077c-31.912-23.118-86.855-60.997-122.785-60.997-9.579 0-17.353 2.737-23.089 8.094-2.533 2.388-5.125 4.775-7.716 7.163-14.442 13.335-29.379 27.106-39.395 43.993-13.452 22.71-3.669 41.927 6.697 62.249 2.067 4.047 4.193 8.211 6.172 12.491 16.597 35.725 33.805 72.643 37.241 117.248.553 7.221-1.019 15.956-2.533 24.37-3.524 19.799-7.192 40.296 14.936 45.857z"/>
        <path d="M256.518 635.273c3.756 2.388 9.812 3.698 17.121 3.698 6.493 0 14.179-1.077 22.361-3.581v-2.126c-8.182 2.562-15.868 3.669-22.361 3.669-6.814 0-12.637-1.223-16.015-3.378-17.12-10.918-24.661-30.222-32.669-50.632-6.9-17.615-14.063-35.841-27.922-48.681l-.03-.611-.611.029c-15.956-14.063-37.415-20.905-65.658-20.905-27.544 0-56.516 6.609-79.78 11.908-15.897 3.639-29.64 6.755-38.492 6.755-5.183 0-8.356-1.077-9.667-3.261-1.747-2.912-.436-8.415 3.873-16.276 20.12-36.744 60.766-124.323 57.942-160.572-2.213-28.592-15.956-58.144-29.262-86.706-19.217-41.315-39.133-84.086-24.633-124.935C27.253 93.053 100.074 9.725 151.873 2.65c3.028-.408 6.289-.612 9.695-.612 33.718 0 83.012 20.09 134.403 49.176v-2.183C244.58 20.002 195.315 0 161.568 0c-3.494 0-6.842.204-9.957.64C99.142 7.804 25.477 91.919 8.793 138.97c-14.762 41.635 5.329 84.784 24.72 126.536 13.22 28.388 26.875 57.765 29.059 86.008 2.504 32.318-32.931 114.22-57.68 159.437-4.805 8.793-6.057 14.616-3.844 18.313 1.69 2.883 5.445 4.251 11.414 4.251 9.085 0 22.915-3.144 38.929-6.813 23.177-5.299 52.032-11.879 79.343-11.879 27.894 0 49.032 6.755 64.61 20.643 13.714 12.549 20.818 30.688 27.719 48.215 8.123 20.731 15.781 40.325 33.455 51.593z"/>
        <path d="M59.69 487.075c2.067 2.999 7.162 4.28 16.974 4.28 6.144 0 13.452-.495 21.925-1.048 10.482-.699 22.391-1.485 34.678-1.485 38.929 0 65.192 8.269 82.692 26.087 16.276 12.52 25.244 32.93 33.163 50.953 9.638 21.895 17.936 40.791 36.309 40.791 1.951 0 4.018-.233 6.114-.67a52.129 52.129 0 0 0 4.426-1.136v-1.514c-1.63.524-3.232.932-4.717 1.252-2.009.408-3.989.641-5.823.641-17.412 0-25.535-18.489-34.969-39.918-8.007-18.168-17.063-38.752-33.543-51.447-17.732-18.052-44.315-26.466-83.652-26.466-12.345 0-24.254.786-34.794 1.485-8.444.553-15.752 1.048-21.838 1.048-9.026 0-14.034-1.165-15.752-3.639-.932-1.369-.96-3.203-.058-5.649 18.518-49.525 34.037-112.211 32.523-131.515-2.62-33.803-17.47-65.743-31.853-96.635-17.587-37.762-34.183-73.429-23.643-103.185 14.675-41.344 81.643-113.114 117.893-118.064 1.747-.233 3.698-.35 5.794-.35 28.244 0 78.004 20.236 134.403 53.66v-1.688C239.66 49.526 189.928 29.407 161.569 29.407c-2.184 0-4.193.116-5.998.378-36.658 5.008-104.296 77.36-119.088 119.025-10.744 30.309 5.97 66.238 23.672 104.292 14.326 30.775 29.117 62.569 31.737 96.11 1.31 16.917-12.578 77.768-32.435 130.875-1.078 2.941-1.02 5.212.232 6.988z"/>
        <path d="M103.655 449.166c5.416 7.774 16.859 8.647 32.669 9.87 1.718.117 3.494.262 5.299.408 5.009.408 10.25.582 15.782.786 25.739.874 54.914 1.893 81.264 25.884l.321.291c14.616 12.782 23.293 35.317 30.98 55.203 7.716 20.032 14.412 37.326 25.011 37.326.32 0 .67-.058.99-.116v-.874c-.32.03-.67.117-.99.117-10.016 0-16.567-17.033-24.196-36.773-7.716-19.973-16.451-42.625-31.213-55.553l-.32-.291c-26.584-24.195-55.933-25.214-81.818-26.087-5.532-.204-10.773-.379-15.752-.787-1.806-.145-3.582-.291-5.3-.407-15.577-1.194-26.845-2.067-32.028-9.492-4.891-7.046-4.222-20.264 2.242-42.8 5.969-20.876 8.211-39.946 6.784-58.289-2.911-37.414-18.547-71.013-33.658-103.535-15.782-33.949-30.719-66.005-22.915-88.017C69.793 119.374 132.51 54.679 158.482 51.156c.582-.087 1.572-.175 3.086-.175 21.692 0 70.783 18.052 134.403 57.038V107c-63.562-38.928-112.652-56.921-134.403-56.921-1.543 0-2.591.087-3.202.174-26.176 3.581-89.33 68.626-102.375 105.457-7.92 22.361 7.076 54.563 22.944 88.686 15.083 32.435 30.689 65.947 33.572 103.215 1.427 18.255-.786 37.239-6.755 57.998-6.61 23.118-7.25 36.162-2.097 43.557z"/>
    </g>
    <defs>
        <clipPath id="15nvpocvva">
            <path fill="#fff" d="M0 0h296v639H0z"/>
        </clipPath>
    </defs>
</svg>
